<svg width="16" height="16" viewBox="0 0 16 16" fill="none" xmlns="http://www.w3.org/2000/svg">
<path d="M15.8627 4.20587L13.1363 1.47949C12.735 1.07812 12.2013 0.857056 11.6337 0.857056H10.0716C9.86264 0.857056 9.67892 0.995368 9.62114 1.19618C9.41448 1.91437 8.74783 2.41596 8.00001 2.41596C7.2522 2.41596 6.58555 1.91437 6.37889 1.19618C6.32111 0.995368 6.13736 0.857056 5.92842 0.857056H4.36636C3.79873 0.857056 3.26508 1.07812 2.8637 1.47949L0.137295 4.20587C-0.0375489 4.38071 -0.0465177 4.66131 0.116826 4.84696L2.30186 7.33059C2.38739 7.42781 2.50939 7.48534 2.63883 7.48946C2.76823 7.49371 2.89367 7.44399 2.98523 7.3524L3.21148 7.12615V10.9675H4.11676C5.84783 10.9675 7.25611 12.3758 7.25611 14.1069V15.1429H8.74379V14.1069C8.74379 12.3758 10.1521 10.9676 11.8831 10.9676H12.7884V7.12615L13.0147 7.3524C13.1062 7.44399 13.2318 7.49377 13.3611 7.48946C13.4905 7.48534 13.6125 7.42781 13.698 7.33059L15.8831 4.84696C16.0465 4.66131 16.0376 4.38071 15.8627 4.20587Z" fill="#7590A6"/>
<path d="M11.8832 11.905C10.6691 11.905 9.6814 12.8928 9.6814 14.1069V15.1426C10.4193 15.139 11.1345 14.8752 11.6966 14.3982C12.3568 13.8381 12.7392 12.9583 12.784 11.905H11.8832Z" fill="#7590A6"/>
<path d="M6.31872 14.1069C6.31872 12.8928 5.33097 11.9051 4.11688 11.9051H3.21606C3.26038 12.9572 3.64288 13.8377 4.30347 14.3982C4.86566 14.8752 5.58081 15.1391 6.31872 15.1426V14.1069Z" fill="#7590A6"/>
</svg>
