<svg width="16" height="16" viewBox="0 0 16 16" fill="none" xmlns="http://www.w3.org/2000/svg">
<g clip-path="url(#clip0_37_3621)">
<path d="M1.20105 6.19141C0.926025 6.19141 0.703125 6.41431 0.703125 6.68933V7.14453C0.703125 9.19373 2.11963 10.918 4.0249 11.3901L3.54456 12.0835C4.45032 12.4791 5.08521 13.3832 5.08521 14.4331C5.08521 14.6931 5.04602 14.9441 4.97376 15.1807C5.2168 15.298 5.48914 15.3638 5.77661 15.3638H9.49536C9.78284 15.3638 10.0552 15.298 10.2982 15.1807C10.226 14.9441 10.1866 14.6931 10.1866 14.4331C10.1866 13.3538 10.8577 12.4288 11.8041 12.0518L11.4497 11.4884C13.6215 11.2344 15.3123 9.3833 15.3123 7.14453V6.19141H1.20105ZM4.64673 12.2412L5.14758 11.5184H10.2922L10.7468 12.2412H4.64673Z" fill="#7590A6"/>
<path d="M11.6632 5.19556V0.616577C11.1107 0.425781 10.5181 0.321899 9.90161 0.321899H9.32459C9.04968 0.321899 8.82666 0.5448 8.82666 0.819824V5.19556H11.6632Z" fill="#7590A6"/>
<path d="M12.6589 5.19556H15.2856C15.1123 3.44458 14.1007 1.93665 12.6589 1.0791V5.19556Z" fill="#7590A6"/>
<path d="M4.37162 0.232914C4.22526 0.000125974 3.91776 -0.0699424 3.6851 0.076542C3.45231 0.222904 3.38224 0.530277 3.5286 0.763066L6.31608 5.19556H7.49247L4.37162 0.232914Z" fill="#7590A6"/>
<path d="M14.3165 14.4331C14.3165 13.5691 13.6136 12.8661 12.7495 12.8661C11.8856 12.8661 11.1826 13.5691 11.1826 14.4331C11.1826 15.2971 11.8856 16 12.7495 16C13.6136 16 14.3165 15.2971 14.3165 14.4331Z" fill="#7590A6"/>
<path d="M2.52258 12.8661C1.65857 12.8661 0.955566 13.5691 0.955566 14.4331C0.955566 15.2971 1.65857 16 2.52258 16C3.3866 16 4.08948 15.2971 4.08948 14.4331C4.08948 13.5691 3.3866 12.8661 2.52258 12.8661Z" fill="#7590A6"/>
</g>
<defs>
<clipPath id="clip0_37_3621">
<rect width="15.9688" height="16" fill="white"/>
</clipPath>
</defs>
</svg>
