<svg width="16" height="16" viewBox="0 0 16 16" fill="none" xmlns="http://www.w3.org/2000/svg">
<g clip-path="url(#clip0_22_434)">
<path d="M13.2259 10.4615C13.4465 10.4241 13.6512 10.3221 13.8156 10.1656C13.9006 10.0847 14.523 9.57751 14.523 8.65063C14.523 8.21753 14.3543 7.8103 14.0481 7.50403C13.8625 7.31848 13.6396 7.18311 13.3966 7.10596C13.414 7.23474 13.4228 7.3656 13.4228 7.4978V9.00402C13.4228 9.50341 13.3556 9.99279 13.2259 10.4615Z" fill="#7590A6"/>
<path d="M2.60339 7.10596C2.36035 7.18311 2.13745 7.31848 1.9519 7.50403C1.64563 7.8103 1.47693 8.21753 1.47693 8.65063C1.47693 9.57751 2.09936 10.0847 2.18432 10.1656C2.34875 10.3221 2.55346 10.4241 2.77405 10.4615C2.64441 9.99279 2.57715 9.50378 2.57715 9.00402V7.4978C2.57715 7.3656 2.58594 7.23474 2.60339 7.10596Z" fill="#7590A6"/>
<path d="M5.52282 13.8319V15.5312C5.52282 15.79 5.73278 16 5.99157 16H10.0084C10.2672 16 10.4772 15.79 10.4772 15.5312V13.8321C9.72032 14.2213 8.87621 14.4272 7.99999 14.4272C7.12401 14.4272 6.27965 14.2213 5.52282 13.8319Z" fill="#7590A6"/>
<path d="M10.5102 4.58534C11.1815 4.58534 11.8009 4.81373 12.294 5.19715C11.7365 3.35414 10.0222 2.00844 7.99937 2.00844C5.97692 2.00844 4.26281 3.35438 3.70556 5.19752C4.19909 4.81373 4.81811 4.58534 5.48973 4.58534H10.5102Z" fill="#7590A6"/>
<path d="M10.743 1.81679C10.2856 0.741472 9.21361 -0.0118224 7.97057 0.000140469C6.75914 0.0119813 5.72814 0.757585 5.27184 1.80751C6.09716 1.32399 7.02855 1.07094 7.99938 1.07094C8.97655 1.07094 9.91368 1.32729 10.743 1.81679Z" fill="#7590A6"/>
<path d="M10.5104 5.52295H5.48961C4.39721 5.52295 3.51464 6.4071 3.51464 7.49792V9.00414C3.51464 11.4853 5.52282 13.4896 7.99998 13.4896C10.4812 13.4896 12.4853 11.4813 12.4853 9.00414V7.49792C12.4853 6.40552 11.6012 5.52295 10.5104 5.52295Z" fill="#7590A6"/>
<path d="M15.7053 13.0876C14.8969 12.7644 14.7568 11.9956 14.7275 11.8906C14.671 11.6881 14.4864 11.548 14.2761 11.548C14.2761 11.548 14.2761 11.548 14.276 11.548C14.0658 11.548 13.8811 11.688 13.8246 11.8905C13.7953 11.9954 13.655 12.7644 12.8468 13.0876C12.6688 13.1589 12.552 13.3313 12.552 13.5229C12.552 13.7146 12.6688 13.887 12.8468 13.9582C13.655 14.2814 13.7951 15.05 13.8246 15.1554C13.8811 15.3579 14.0658 15.498 14.2761 15.4979C14.4864 15.4979 14.671 15.3579 14.7275 15.1553C14.7567 15.0508 14.8969 14.2815 15.7053 13.9582C15.8833 13.887 16 13.7146 16 13.5229C16 13.3313 15.8833 13.1589 15.7053 13.0876Z" fill="#7590A6"/>
<path d="M3.15319 2.04188C2.34484 1.71864 2.20471 0.949843 2.17541 0.844863C2.11889 0.642227 1.93432 0.50209 1.724 0.50209C1.51367 0.50209 1.3291 0.642105 1.27246 0.844741C1.24316 0.949477 1.10303 1.71864 0.294677 2.04188C0.116699 2.11305 0 2.28541 0 2.47706C0 2.66883 0.116699 2.8412 0.294677 2.91236C1.10303 3.23561 1.24304 4.00428 1.27246 4.10951C1.3291 4.31214 1.51367 4.45216 1.724 4.45216C1.93432 4.45216 2.11889 4.31202 2.17541 4.10938C2.20459 4.00489 2.34484 3.23561 3.15319 2.91236C3.33117 2.8412 3.44799 2.66883 3.44799 2.47706C3.44799 2.28541 3.33117 2.11305 3.15319 2.04188Z" fill="#7590A6"/>
<path d="M3.1914 13.105C2.32922 12.6395 2.26232 11.8013 2.18274 11.4192C2.13757 11.2018 1.94592 11.0459 1.72387 11.0459C1.50171 11.0459 1.31018 11.2018 1.26489 11.4192C1.18579 11.7992 1.12256 12.6355 0.259033 13.1035C0.105469 13.1805 0 13.3394 0 13.5229C0 13.7053 0.104126 13.8633 0.256225 13.9408C1.11841 14.4062 1.18542 15.2445 1.26489 15.6267C1.31018 15.8441 1.50171 16 1.72387 16C1.94604 16 2.13757 15.8441 2.18286 15.6267C2.26196 15.2467 2.32519 14.4104 3.18871 13.9424C3.34228 13.8654 3.44763 13.7065 3.44763 13.5229C3.44763 13.3406 3.3435 13.1825 3.1914 13.105Z" fill="#7590A6"/>
<path d="M12.8086 2.89503C13.6708 3.36048 13.7376 4.19874 13.8172 4.58082C13.8624 4.79835 14.0541 4.95423 14.2762 4.95423C14.4983 4.95423 14.6899 4.79835 14.7351 4.58082C14.8142 4.20081 14.8775 3.36463 15.7411 2.89649C15.8946 2.81947 16 2.66065 16 2.47706C16 2.29469 15.8958 2.13673 15.7437 2.05922C14.8816 1.59376 14.8147 0.755507 14.7351 0.373428C14.6899 0.155899 14.4983 1.52588e-05 14.2762 1.52588e-05C14.0541 1.52588e-05 13.8624 0.155899 13.8172 0.373305C13.7381 0.75331 13.6749 1.58961 12.8114 2.05775C12.6578 2.13465 12.5523 2.29359 12.5523 2.47706C12.5523 2.65943 12.6565 2.81751 12.8086 2.89503Z" fill="#7590A6"/>
</g>
<defs>
<clipPath id="clip0_22_434">
<rect width="16" height="16" fill="white"/>
</clipPath>
</defs>
</svg>
