<svg width="16" height="16" viewBox="0 0 16 16" fill="none" xmlns="http://www.w3.org/2000/svg">
<g clip-path="url(#clip0_37_2394)">
<path d="M8 16C7.63 16 7.26067 15.9487 6.90133 15.846L2.41733 14.5653C0.994 14.1587 0 12.8407 0 11.36V2.66666C0 2.29866 0.298667 1.99999 0.666667 1.99999C1.03467 1.99999 1.33333 2.29866 1.33333 2.66666V11.36C1.33333 12.2487 1.93 13.0393 2.784 13.2833L7.268 14.564C7.74733 14.7007 8.25333 14.7007 8.73333 14.564L13.2167 13.2833C14.0707 13.0393 14.6673 12.2487 14.6673 11.36V1.99999C14.6673 1.63199 14.966 1.33332 15.334 1.33332C15.702 1.33332 16.0007 1.63199 16.0007 1.99999V11.36C16.0007 12.84 15.0067 14.158 13.5833 14.5653L9.09933 15.846C8.73933 15.9487 8.37 16 8.00067 16H8ZM12.0153 0.103324C11.53 -0.0760093 10.9893 -0.0313426 10.5087 0.160657L9.924 0.393991C9.16467 0.697324 8.666 1.43332 8.666 2.25132V11.9153C8.44733 11.9713 8.224 12 7.99933 12C7.77467 12 7.55133 11.9713 7.33267 11.9153V2.25132C7.33267 1.43332 6.83467 0.697324 6.07467 0.393991L5.48933 0.159991C5.00867 -0.0320093 4.468 -0.076676 3.98267 0.103324C3.17267 0.403324 2.66533 1.15866 2.66533 1.98466V10.4607C2.66533 11.3533 3.25733 12.138 4.11533 12.3833L6.89933 13.1793C7.258 13.2813 7.628 13.3327 7.998 13.3327C8.368 13.3327 8.738 13.2813 9.09667 13.1793L11.8807 12.3833C12.7393 12.138 13.3307 11.3533 13.3307 10.4607V1.98466C13.3307 1.15866 12.8227 0.402657 12.0127 0.103324H12.0153Z" fill="#7590A6"/>
</g>
<defs>
<clipPath id="clip0_37_2394">
<rect width="16" height="16" fill="white"/>
</clipPath>
</defs>
</svg>
