<svg width="16" height="16" viewBox="0 0 16 16" fill="none" xmlns="http://www.w3.org/2000/svg">
<g clip-path="url(#clip0_37_2182)">
<path d="M4.24219 2.84591H3.30469C3.04606 2.84591 2.83594 3.05603 2.83594 3.31466C2.83594 3.57328 3.04606 3.78341 3.30469 3.78341H4.24219C4.50081 3.78341 4.71094 3.57328 4.71094 3.31466C4.71094 3.05603 4.50081 2.84591 4.24219 2.84591Z" fill="#7590A6"/>
<path d="M4.21875 0H3.28125C1.47216 0 0 1.47216 0 3.28125V6.09375C0 7.38603 1.05147 8.4375 2.34375 8.4375H5.15625C6.44853 8.4375 7.5 7.38603 7.5 6.09375V3.28125C7.5 1.47216 6.02784 0 4.21875 0ZM5.13291 6.52909H2.32041C2.06131 6.52909 1.85166 6.31944 1.85166 6.06034C1.85166 5.80125 2.06131 5.59159 2.32041 5.59159H5.13291C5.392 5.59159 5.60166 5.80125 5.60166 6.06034C5.60166 6.31944 5.392 6.52909 5.13291 6.52909ZM4.21875 4.6875H3.28125C2.50581 4.6875 1.875 4.05669 1.875 3.28125C1.875 2.50581 2.50581 1.875 3.28125 1.875H4.21875C4.99419 1.875 5.625 2.50581 5.625 3.28125C5.625 4.05669 4.99419 4.6875 4.21875 4.6875Z" fill="#7590A6"/>
<path d="M1.87491 9.375C1.87491 9.58216 1.86366 9.72859 2.03513 9.87853L2.56934 10.3459L2.03513 10.8133C1.93303 10.9026 1.87491 11.0312 1.87491 11.1662C1.87491 11.3012 1.93303 11.4299 2.03513 11.5192L2.56934 11.9865L2.03513 12.4539C1.93303 12.5432 1.87491 12.6718 1.87491 12.8068V13.6272C1.87491 13.7837 1.95319 13.9302 2.08366 14.0172L3.48991 14.9547C3.56866 15.0073 3.65928 15.0334 3.74991 15.0334C3.84053 15.0334 3.93119 15.0073 4.00991 14.9547L5.41616 14.0172C5.54663 13.9302 5.62491 13.7837 5.62491 13.6272V9.375H1.87491Z" fill="#7590A6"/>
<path d="M13.1875 7.5625H11.3125V9.90625H13.1875V7.5625Z" fill="#7590A6"/>
<path d="M13.1875 10.8438H11.3125V13.1875H13.1875V10.8438Z" fill="#7590A6"/>
<path d="M13.6563 4.75H12.7188V4.28125C12.7188 1.95491 10.8264 0.0625 8.50006 0.0625H6.82056C7.16468 0.330875 7.47584 0.639344 7.72293 1H8.50006C10.3092 1 11.7813 2.47216 11.7813 4.28125V4.75H10.8438C9.55153 4.75 8.50006 5.80147 8.50006 7.09375V13.6562C8.50006 14.9485 9.55153 16 10.8438 16H13.6563C14.9486 16 16.0001 14.9485 16.0001 13.6562V7.09375C16.0001 5.80147 14.9486 4.75 13.6563 4.75ZM14.1251 13.6562C14.1251 13.9153 13.9154 14.125 13.6563 14.125H10.8438C10.5847 14.125 10.3751 13.9153 10.3751 13.6562V7.09375C10.3751 6.83466 10.5847 6.625 10.8438 6.625H13.6563C13.9154 6.625 14.1251 6.83466 14.1251 7.09375V13.6562Z" fill="#7590A6"/>
</g>
<defs>
<clipPath id="clip0_37_2182">
<rect width="16" height="16" fill="white"/>
</clipPath>
</defs>
</svg>
