<svg width="16" height="16" viewBox="0 0 16 16" fill="none" xmlns="http://www.w3.org/2000/svg">
<g clip-path="url(#clip0_37_2283)">
<path d="M15.0448 10.4029C14.2217 9.57921 13.0797 9.23027 11.613 9.62334L6.3831 4.38809L6.45223 4.12671C6.75345 2.99652 6.42798 1.78168 5.6031 0.956805C4.76323 0.116274 3.56923 -0.192132 2.44001 0.118055C2.27898 0.162274 2.15363 0.288805 2.11098 0.450274C2.06832 0.611743 2.1151 0.783368 2.23313 0.901461L3.49242 2.16074C3.86057 2.5298 3.85698 3.12087 3.49332 3.48549C3.13254 3.84724 2.5261 3.84668 2.16676 3.4864L0.907228 2.22677C0.789135 2.10862 0.61701 2.06227 0.455541 2.10518C0.294041 2.14806 0.167978 2.27371 0.123916 2.4349C-0.18174 3.55171 0.118947 4.75312 0.962853 5.59702C1.78554 6.42031 2.92613 6.77049 4.39367 6.37659L9.62401 11.6118C9.2337 13.0781 9.57038 14.209 10.4045 15.0431C11.2454 15.8847 12.44 16.1908 13.5667 15.8816C13.7278 15.8375 13.8532 15.7109 13.8959 15.5494C13.9385 15.388 13.8918 15.2163 13.7737 15.0982L12.5147 13.8392C12.1465 13.4701 12.1501 12.879 12.5138 12.5144C12.8791 12.151 13.4842 12.1568 13.8404 12.514L15.1 13.7732C15.2181 13.8913 15.3902 13.9377 15.5516 13.8948C15.7131 13.8519 15.8392 13.7263 15.8832 13.5651C16.1889 12.4485 15.8883 11.2468 15.0448 10.4029Z" fill="#7590A6"/>
<path d="M5.0172 8.33075L0.548705 12.7998C-0.182576 13.5311 -0.182576 14.7203 0.548705 15.4515C1.27999 16.1828 2.46917 16.1828 3.20042 15.4515L7.66883 10.9826L5.0172 8.33075ZM2.76005 13.9968C2.57692 14.1799 2.28036 14.1799 2.09724 13.9968C1.91414 13.8137 1.91414 13.5171 2.09724 13.334L4.94036 10.4903C5.12345 10.3072 5.42011 10.3072 5.60317 10.4903C5.78627 10.6734 5.78627 10.9701 5.60317 11.1532L2.76005 13.9968Z" fill="#7590A6"/>
<path d="M15.8623 0.945411L15.0543 0.137317C14.9022 -0.0147766 14.6661 -0.0438391 14.4817 0.0667547L11.9958 1.5581C11.7343 1.715 11.6899 2.07585 11.9055 2.2915L12.1034 2.48932L8.94775 5.63204L10.2738 6.95813L13.4295 3.81541L13.7082 4.09419C13.9238 4.30979 14.2847 4.26541 14.4416 4.00385L15.9329 1.518C16.0435 1.33354 16.0144 1.0975 15.8623 0.945411Z" fill="#7590A6"/>
</g>
<defs>
<clipPath id="clip0_37_2283">
<rect width="16" height="16" fill="white"/>
</clipPath>
</defs>
</svg>
