<svg width="21" height="21" viewBox="0 0 21 21" fill="none" xmlns="http://www.w3.org/2000/svg">
<g clip-path="url(#clip0_37_2224)">
<path fill-rule="evenodd" clip-rule="evenodd" d="M3.08834 13.7427C3.08834 13.231 3.50313 12.8162 4.0148 12.8162C4.52647 12.8162 4.94126 13.231 4.94126 13.7427C4.94126 14.2543 4.52647 14.6691 4.0148 14.6691C3.50313 14.6691 3.08834 14.2543 3.08834 13.7427ZM6.17657 13.7427C6.17657 12.5487 5.20872 11.5809 4.0148 11.5809C2.82087 11.5809 1.85303 12.5487 1.85303 13.7427C1.85303 14.9366 2.82087 15.9044 4.0148 15.9044C5.20872 15.9044 6.17657 14.9365 6.17657 13.7427ZM15.4413 13.7427C15.4413 13.231 15.8561 12.8162 16.3678 12.8162C16.8794 12.8162 17.2942 13.231 17.2942 13.7427C17.2942 14.2543 16.8794 14.6691 16.3678 14.6691C15.8561 14.6691 15.4413 14.2543 15.4413 13.7427ZM18.5295 13.7427C18.5295 12.5487 17.5617 11.5809 16.3678 11.5809C15.1738 11.5809 14.206 12.5487 14.206 13.7427C14.206 14.9366 15.1738 15.9044 16.3678 15.9044C17.5616 15.9044 18.5295 14.9365 18.5295 13.7427Z" fill="#7590A6"/>
<path fill-rule="evenodd" clip-rule="evenodd" d="M19.1471 13.7427H20.3824C20.7235 13.7427 21 13.4661 21 13.125V9.41912C21 9.078 20.7235 8.80147 20.3824 8.80147H4.94119C4.91195 8.80147 4.88279 8.80356 4.85383 8.80766L0.530291 9.42532C0.225996 9.46879 0 9.72941 0 10.0368V13.125C0 13.4661 0.276527 13.7427 0.617654 13.7427H1.23531C1.23531 12.2077 2.47968 10.9632 4.01473 10.9632C5.54978 10.9632 6.79416 12.2076 6.79416 13.7427H13.5883C13.5883 12.2077 14.8326 10.9632 16.3677 10.9632C17.9027 10.9632 19.1471 12.2076 19.1471 13.7427Z" fill="#7590A6"/>
<path fill-rule="evenodd" clip-rule="evenodd" d="M19.7646 6.33089V9.41912C19.7646 9.76025 20.0412 10.0368 20.3823 10.0368C20.7234 10.0368 20.9999 9.76025 20.9999 9.41912V5.71324C20.9999 5.37211 20.7234 5.09558 20.3823 5.09558H7.72052C7.53722 5.09558 7.36339 5.177 7.24605 5.3178L4.15782 9.02369C3.93945 9.28574 3.97485 9.67522 4.2369 9.89359C4.49894 10.112 4.88843 10.0766 5.1068 9.81451L8.01251 6.33085L19.7646 6.33089Z" fill="#7590A6"/>
</g>
<defs>
<clipPath id="clip0_37_2224">
<rect width="21" height="21" fill="white"/>
</clipPath>
</defs>
</svg>
