<svg width="16" height="16" viewBox="0 0 16 16" fill="none" xmlns="http://www.w3.org/2000/svg">
<path d="M10.1672 2.72758L10.5416 2.37037H11.7073C11.9598 2.37037 12.1772 2.1764 12.1893 1.92415C12.2022 1.65471 11.9873 1.43196 11.7206 1.43196H10.8228V0.481085C10.8228 0.228272 10.6284 0.0108037 10.3759 -0.000821352C10.1064 -0.0132277 9.88444 0.201522 9.88444 0.467866V1.70033L9.38647 2.17518C9.52444 2.23368 9.65707 2.30655 9.78279 2.39258C9.92482 2.49049 10.0537 2.60308 10.1672 2.72758Z" fill="#7590A6"/>
<path d="M9.56846 5.02912C9.7343 4.80312 9.82174 4.53603 9.82174 4.25328C9.82174 3.81819 9.60824 3.41162 9.25093 3.16587C8.79264 2.85115 8.18233 2.85837 7.73214 3.18469L6.68799 3.94047C7.63374 4.17869 8.50986 4.63634 9.22802 5.27678L9.56846 5.02912Z" fill="#7590A6"/>
<path d="M2.28448 8.49351C2.31107 8.28476 2.47979 8.11601 2.68857 8.08945C2.99542 8.0507 3.25389 8.30851 3.21511 8.6157C3.18886 8.82507 3.01979 8.99414 2.81076 9.02039C2.50357 9.05882 2.24576 8.80039 2.28448 8.49351ZM3.42729 6.37976C3.69639 6.3682 3.91764 6.58257 3.91764 6.84851C3.91764 7.10757 3.70761 7.31789 3.44823 7.31789C3.18167 7.31789 2.96667 7.09476 2.97979 6.82507C2.99136 6.58632 3.18857 6.39007 3.42729 6.37976ZM5.03042 7.53382C5.23979 7.56007 5.40886 7.72914 5.43511 7.93851C5.47389 8.2457 5.21542 8.50351 4.90857 8.46476C4.69948 8.4382 4.53107 8.26945 4.50448 8.0607C4.46576 7.75382 4.72323 7.49539 5.03042 7.53382ZM13.2151 11.2698C13.1957 10.6835 12.867 10.1519 12.3464 9.87257C12.2186 9.80414 12.1289 9.68007 12.1048 9.53664C12.0807 9.39351 12.1242 9.24695 12.2229 9.13976L13.5267 7.72289C13.8814 7.33757 14.051 6.81726 13.9929 6.29539C13.9351 5.77914 13.6595 5.31382 13.2364 5.01695C13.2323 5.01476 13.2289 5.01226 13.2254 5.00976C12.6023 4.57945 11.772 4.58945 11.1586 5.03539L9.46326 6.2682C9.27386 6.40601 9.01264 6.38351 8.84948 6.2157C7.91014 5.24789 6.56917 4.69257 5.17139 4.69257C2.43607 4.69257 0.210449 6.76851 0.210449 9.32039C0.210449 9.99507 0.368856 10.6626 0.671043 11.2698H13.2151Z" fill="#7590A6"/>
<path d="M13.7745 4.24847C13.7933 4.26159 13.8117 4.27475 13.8299 4.2885L14.2963 3.84369H15.4621C15.7149 3.84369 15.9323 3.64925 15.944 3.39672C15.9564 3.12728 15.7416 2.90528 15.4753 2.90528H14.5775V1.95447C14.5775 1.70197 14.3836 1.48462 14.1313 1.47256C13.8619 1.45965 13.6391 1.67425 13.6391 1.94122V3.17365L12.9287 3.8509C13.2224 3.93097 13.5017 4.06047 13.7567 4.23628L13.7745 4.24847Z" fill="#7590A6"/>
<path d="M15.5312 12.1207H8H0.46875C0.21 12.1207 0 12.3081 0 12.5389C0 12.7386 0.0192809 12.9343 0.0558433 13.1248C0.0804058 13.2565 0.104187 13.3503 0.118656 13.3896C0.544719 14.8887 2.06978 16.0013 3.88062 16.0013H8H12.1194C14.2591 16.0013 16 14.448 16 12.5389C16 12.3081 15.79 12.1207 15.5312 12.1207Z" fill="#7590A6"/>
</svg>
