<?xml version="1.0" encoding="UTF-8"?>
<svg id="Layer_1" xmlns="http://www.w3.org/2000/svg" xmlns:svgjs="http://svgjs.dev/svgjs" version="1.1" viewBox="0 0 16 16">
  <!-- Generator: Adobe Illustrator 29.1.0, SVG Export Plug-In . SVG Version: 2.1.0 Build 142)  -->
  <defs>
    <style>
      .st0 {
        fill: #7590a6;
      }
    </style>
  </defs>
  <path class="st0" d="M7.4,8v.6c0,.2-.4.4-.6.4h-.9l.2-1h1.3Z" fill="#7590A6"/>
  <path class="st0" d="M7,12.8v.2H.7v-.3c0-.3.1-.5.4-.6l.4-.2c.2,0,.3-.3.4-.5l.6-3.5h3.1l-.5,3.1c0,.3,0,.7.5.8l1.1.3c.3,0,.5.3.5.6h-.2Z" fill="#7590A6"/>
  <path class="st0" d="M.7,13.7h6.3v.5c0,.3-.2.5-.5.5H1.2c-.3,0-.5-.2-.5-.5,0,0,0-.5,0-.5Z" fill="#7590A6"/>
  <path class="st0" d="M13,4h2.7c.2,0,.3,0,.3.3s-.1.3-.3.3h-2.7v-.7h0Z" fill="#7590A6"/>
  <path class="st0" d="M11.7,3.3h-.3v2h.3c.4,0,.7-.3.7-.7v-.7c0-.4-.3-.7-.7-.7h0Z" fill="#7590A6"/>
  <path class="st0" d="M10.7,3v2.7c0,.4-.3.7-.7.7h-.3V2.3h.3c.4,0,.7.3.7.7Z" fill="#7590A6"/>
  <path class="st0" d="M8.3,1.3H3C1.3,1.3,0,2.7,0,4.3s1.3,3,3,3h5.3c.4,0,.7-.3.7-.7V2c0-.4-.3-.7-.7-.7ZM4.7,5.5h-2.3c-.2,0-.3,0-.3-.3s0-.3.3-.3h2.3c.2,0,.3,0,.3.3s0,.3-.3.3ZM4.7,3.8h-2.3c-.2,0-.3,0-.3-.3s0-.3.3-.3h2.3c.2,0,.3,0,.3.3s0,.3-.3.3Z" fill="#7590A6"/>
</svg>