<?xml version="1.0" encoding="UTF-8"?>
<svg id="Capa_1" xmlns="http://www.w3.org/2000/svg" version="1.1" viewBox="0 0 16 16">
  <!-- Generator: Adobe Illustrator 29.1.0, SVG Export Plug-In . SVG Version: 2.1.0 Build 142)  -->
  <defs>
    <style>
      .st0 {
        fill: #7590a6;
      }
    </style>
  </defs>
  <path class="st0" d="M13,13.9c-.3,0-.6-.3-.6-.6v-.6h.6c1,0,1.2-.3,1.2-.3v1c0,.3-.3.6-.6.6h-.6Z" fill="#7590A6"/>
  <path class="st0" d="M2.4,13.9c-.3,0-.6-.3-.6-.6v-1s.3.3,1.2.3h.6v.6c0,.3-.3.6-.6.6h-.6Z" fill="#7590A6"/>
  <path class="st0" d="M16,7.3c0-.8-.6-1.4-1.4-1.4s-1.1.4-1.3.9l-.7,1.5c0,0-2.1-.7-4.5-.7s-4.5.7-4.6.7l-.6-1.4c-.2-.6-.7-1-1.4-1-.8,0-1.4.6-1.4,1.4s.5,1.2,1.1,1.4l.3,2.3c.3,1,1.7,1,1.7,1h10s1.4,0,1.7-1l.3-2.3c.6-.2,1.1-.7,1.1-1.4Z" fill="#7590A6"/>
  <path class="st0" d="M1.4,5.1c.9,0,1.8.6,2.1,1.5l.3.7c.6-.2,2.8-.4,4.2-.4s3.5.2,4.1.4l.4-.8c.3-.8,1.1-1.4,2-1.4s.1,0,.2,0c0,0,0,0,0,0,0-1.7-1.3-3-3-3h-7.5c-1.7,0-3,1.3-3,3s0,0,0,0c0,0,.1,0,.2,0Z" fill="#7590A6"/>
</svg>