<svg width="16" height="16" viewBox="0 0 16 16" fill="none" xmlns="http://www.w3.org/2000/svg">
<g clip-path="url(#clip0_37_2396)">
<path d="M7.45972 10.636L5.36541 8.54172L8.5397 5.36742L10.634 7.46173L7.45972 10.636Z" fill="#7590A6"/>
<path d="M0.433248 9.89254C-0.144096 10.4699 -0.144096 11.4095 0.433279 11.987L1.17556 12.7293L0.791154 13.1137C0.511436 13.3935 0.357342 13.7654 0.357342 14.161C0.357342 14.5566 0.511467 14.9286 0.791186 15.2082C1.07087 15.488 1.44284 15.6421 1.8385 15.6421C2.23106 15.6421 2.60025 15.4904 2.87922 15.2148C2.88147 15.2126 2.88369 15.2104 2.88587 15.2083L3.27019 14.824L4.01253 15.5663C4.29222 15.846 4.66415 16 5.05981 16C5.4555 16 5.82753 15.8459 6.10737 15.5661C6.24297 15.4305 6.34615 15.2746 6.418 15.1084L0.890717 9.58113C0.722217 9.65432 0.567029 9.75866 0.433248 9.89254Z" fill="#7590A6"/>
<path d="M15.5656 4.01312L14.8233 3.27078L15.2023 2.89181C15.2041 2.89 15.206 2.88822 15.2078 2.88637C15.7852 2.30897 15.7852 1.36934 15.2078 0.791719C14.9281 0.512 14.5562 0.357938 14.1606 0.357938C13.765 0.357938 13.393 0.511969 13.1132 0.791656C13.1108 0.794062 13.1084 0.796469 13.1061 0.798937L12.7288 1.17619L11.9864 0.433781C11.7067 0.154094 11.3348 0 10.9392 0C10.5435 0 10.1716 0.154094 9.8919 0.433844C9.75618 0.569594 9.65296 0.725563 9.58105 0.891875L15.1081 6.41894C15.2766 6.34578 15.4318 6.24141 15.5657 6.10763C15.8454 5.82788 15.9995 5.45594 15.9995 5.06031C15.9995 4.66469 15.8454 4.29278 15.5656 4.01312Z" fill="#7590A6"/>
<path d="M6.79642 11.2976L4.70183 9.20297L3.24367 7.74485C2.96395 7.46513 2.59202 7.31107 2.19645 7.31107C1.80086 7.31107 1.42886 7.46513 1.14895 7.74494C1.0133 7.8806 0.909766 8.03632 0.837891 8.20257L7.79736 15.162C7.96586 15.0888 8.12089 14.9842 8.2547 14.8503C8.53442 14.5706 8.68845 14.1987 8.68845 13.803C8.68845 13.4073 8.53439 13.0354 8.25467 12.7558L6.79642 11.2976Z" fill="#7590A6"/>
<path d="M7.74428 1.14971C7.16694 1.72718 7.16694 2.66681 7.74431 3.24428L9.20247 4.7024L11.2972 6.79706L11.2972 6.79703L12.7553 8.25506L12.7553 8.25512L12.7554 8.25518C13.0352 8.53487 13.4071 8.6889 13.8026 8.6889H13.8027C14.1982 8.6889 14.5702 8.53481 14.8499 8.25515C14.9836 8.12143 15.0883 7.96646 15.1616 7.79806L8.20153 0.838058C8.0331 0.911246 7.8781 1.01593 7.74428 1.14971Z" fill="#7590A6"/>
</g>
<defs>
<clipPath id="clip0_37_2396">
<rect width="16" height="16" fill="white"/>
</clipPath>
</defs>
</svg>
