<svg width="16" height="16" viewBox="0 0 16 16" fill="none" xmlns="http://www.w3.org/2000/svg">
<g clip-path="url(#clip0_37_3628)">
<path d="M5.25 9.25H10.75C11.5419 9.24923 12.3015 8.93569 12.8633 8.37762C13.4252 7.81955 13.7439 7.06214 13.75 6.27025C13.501 6.09534 13.2043 6.00102 12.9 6H3.1C2.79569 6.00102 2.49902 6.09534 2.25 6.27025C2.25613 7.06214 2.57481 7.81955 3.13667 8.37762C3.69853 8.93569 4.45809 9.24923 5.25 9.25Z" fill="#7590A6"/>
<path d="M7.25 11.25H8.75C8.8163 11.25 8.87989 11.2237 8.92678 11.1768C8.97366 11.1299 9 11.0663 9 11C9 10.9337 8.97366 10.8701 8.92678 10.8232C8.87989 10.7763 8.8163 10.75 8.75 10.75H7.25C7.1837 10.75 7.12011 10.7763 7.07322 10.8232C7.02634 10.8701 7 10.9337 7 11C7 11.0663 7.02634 11.1299 7.07322 11.1768C7.12011 11.2237 7.1837 11.25 7.25 11.25Z" fill="#7590A6"/>
<path d="M7.5 9.75H8.5V10.25H7.5V9.75Z" fill="#7590A6"/>
<path d="M15.2501 14.1058C15.2501 14.0525 15.2443 13.9998 15.2398 13.9468C14.9537 13.7835 14.6218 13.7192 14.2955 13.7637C13.9691 13.8082 13.6665 13.959 13.4346 14.1928C13.2026 14.4267 13.0542 14.7305 13.0124 15.0572C12.9705 15.3839 13.0376 15.7152 13.2031 16H13.3556C13.8578 15.9995 14.3393 15.7997 14.6945 15.4446C15.0497 15.0895 15.2495 14.608 15.2501 14.1058Z" fill="#7590A6"/>
<path d="M1.50009 13.25C2.03034 13.2506 2.5387 13.4615 2.91365 13.8364C3.28859 14.2114 3.49949 14.7197 3.50009 15.25C3.50002 15.5072 3.45001 15.7619 3.35284 16H12.6473C12.5015 15.6428 12.4623 15.251 12.5345 14.872C12.6067 14.493 12.7873 14.1431 13.0542 13.8646C13.3212 13.5861 13.6633 13.391 14.0389 13.3028C14.4145 13.2147 14.8076 13.2373 15.1706 13.368L14.3886 7.308C14.3636 7.11799 14.302 6.93462 14.2073 6.768C14.0829 7.59635 13.6657 8.35268 13.0314 8.89978C12.3971 9.44688 11.5877 9.74853 10.7501 9.75H9.00009V10.296C9.16676 10.3547 9.30728 10.4705 9.39675 10.6229C9.48622 10.7753 9.51888 10.9544 9.48894 11.1285C9.45899 11.3027 9.36838 11.4606 9.23315 11.5744C9.09792 11.6881 8.9268 11.7503 8.75009 11.75H7.25009C7.07338 11.7503 6.90226 11.6881 6.76703 11.5744C6.6318 11.4606 6.54119 11.3027 6.51124 11.1285C6.4813 10.9544 6.51396 10.7753 6.60343 10.6229C6.6929 10.4705 6.83342 10.3547 7.00009 10.296V9.75H5.25009C4.41244 9.74853 3.60306 9.44688 2.96877 8.89978C2.33447 8.35268 1.91727 7.59635 1.79284 6.768C1.69816 6.93462 1.63661 7.11799 1.61159 7.308L0.82959 13.368C1.04464 13.2904 1.27147 13.2505 1.50009 13.25Z" fill="#7590A6"/>
<path d="M1.5 13.75C1.24049 13.75 0.985488 13.8179 0.76025 13.9468C0.75575 14 0.75 14.0525 0.75 14.1058C0.750596 14.608 0.950393 15.0895 1.30556 15.4446C1.66072 15.7997 2.14225 15.9995 2.6445 16H2.797C2.92946 15.7723 2.99947 15.5136 2.99998 15.2501C3.00049 14.9867 2.93147 14.7278 2.7999 14.4995C2.66833 14.2713 2.47885 14.0818 2.25062 13.9502C2.02238 13.8186 1.76346 13.7495 1.5 13.75Z" fill="#7590A6"/>
<path d="M12.5 4.5C12.5 3.30653 12.0259 2.16193 11.182 1.31802C10.3381 0.474106 9.19347 0 8 0C6.80653 0 5.66193 0.474106 4.81802 1.31802C3.97411 2.16193 3.5 3.30653 3.5 4.5H4.5C4.5 3.57174 4.86875 2.6815 5.52513 2.02513C6.1815 1.36875 7.07174 1 8 1C8.92826 1 9.8185 1.36875 10.4749 2.02513C11.1313 2.6815 11.5 3.57174 11.5 4.5H12.5Z" fill="#7590A6"/>
<path d="M12.5 5H11.5C11.3674 5 11.2402 5.05268 11.1464 5.14645C11.0527 5.24021 11 5.36739 11 5.5H13C13 5.36739 12.9473 5.24021 12.8536 5.14645C12.7598 5.05268 12.6326 5 12.5 5Z" fill="#7590A6"/>
<path d="M4.5 5H3.5C3.36739 5 3.24021 5.05268 3.14645 5.14645C3.05268 5.24021 3 5.36739 3 5.5H5C5 5.36739 4.94732 5.24021 4.85355 5.14645C4.75979 5.05268 4.63261 5 4.5 5Z" fill="#7590A6"/>
</g>
<defs>
<clipPath id="clip0_37_3628">
<rect width="16" height="16" fill="white"/>
</clipPath>
</defs>
</svg>
