<svg width="16" height="16" viewBox="0 0 16 16" fill="none" xmlns="http://www.w3.org/2000/svg">
<path d="M10.2688 13.6281V12.7031H9.34375C8.34375 12.7031 7.53125 11.8906 7.53125 10.8906C7.53125 9.89062 8.34375 9.07812 9.34375 9.07812H10.2719V8.15312C10.2844 7.15 11.1094 6.35 12.1094 6.3625C13.0938 6.375 13.8875 7.16875 13.9 8.15312V9.07812H14.7344C15.4875 7.7625 15.8281 6.4375 15.7812 5C15.3594 0.0968728 10.1938 -0.581252 7.8875 2.62812C3.0125 -3.42188 -6.59687 5.49687 6.91875 15.05C7.4875 15.4531 8.25313 15.4437 8.8125 15.025C9.33438 14.6344 9.825 14.25 10.2844 13.875C10.275 13.7937 10.2688 13.7125 10.2688 13.6281Z" fill="#7590A6"/>
<path d="M13.2594 9.71875V8.15312C13.2594 7.50625 12.7344 6.98125 12.0875 6.98125H12.0844C11.4375 6.98125 10.9125 7.50625 10.9125 8.15312V9.71562H9.34375C8.69687 9.71562 8.17188 10.2406 8.17188 10.8875C8.17188 11.5344 8.69375 12.0625 9.34375 12.0625H9.34688H10.9125V13.6281C10.9125 14.275 11.4375 14.8 12.0844 14.8H12.0875C12.7344 14.8 13.2594 14.275 13.2594 13.6281V12.0625H14.8281C15.475 12.0625 16 11.5375 16 10.8906C16 10.2437 15.475 9.71875 14.8281 9.71875H13.2594Z" fill="#7590A6"/>
</svg>
