<svg width="16" height="16" viewBox="0 0 16 16" fill="none" xmlns="http://www.w3.org/2000/svg">
<path d="M0.155029 6.08009V7.0159H0.918436L8.00287 1.80697L14.9421 7.0159H15.8449V6.16315L7.99803 0.229248L0.155029 6.08009Z" fill="#7590A6"/>
<path d="M8.50645 13.8152L8.81724 13.704C9.76192 13.3659 10.3966 12.4632 10.3966 11.4577C10.3966 10.6979 10.0338 9.99628 9.44864 9.55309V11.8247H6.58399V9.55309C5.99883 9.99631 5.63599 10.698 5.63599 11.4577C5.63599 12.4632 6.27071 13.3659 7.21542 13.704L7.52621 13.8152V15.9755C7.68199 15.9916 7.84005 16 8.00002 16C8.17121 16 8.34011 15.9902 8.50645 15.9717V13.8152Z" fill="#7590A6"/>
<path d="M12.5664 11.4258C12.5664 8.90363 10.5179 6.85166 8 6.85166C5.48209 6.85166 3.43359 8.90363 3.43359 11.4258C3.43359 13.4548 4.75941 15.1792 6.58869 15.7761V14.4572C5.44559 13.9111 4.69847 12.7448 4.69847 11.4577C4.69847 10.0599 5.58078 8.80328 6.894 8.33066L7.5215 8.10485V10.8872H8.51116V8.10485L9.13866 8.33066C10.4518 8.80328 11.3342 10.0599 11.3342 11.4577C11.3342 12.7448 10.587 13.9111 9.44397 14.4572V15.7655C11.2564 15.1588 12.5664 13.4428 12.5664 11.4258Z" fill="#7590A6"/>
<path d="M7.99699 2.97488L1.35864 7.85581V16H4.93242C3.46386 15.0092 2.49596 13.3286 2.49596 11.4258C2.49596 8.38669 4.96502 5.91416 7.99986 5.91416C11.0347 5.91416 13.5038 8.38669 13.5038 11.4258C13.5038 13.3286 12.5359 15.0092 11.0673 16H14.6411V7.95341H14.6293L7.99699 2.97488Z" fill="#7590A6"/>
<path d="M14.0675 0H12.5886V2.52525L14.0675 3.64359V0Z" fill="#7590A6"/>
</svg>
