<svg width="16" height="16" viewBox="0 0 16 16" fill="none" xmlns="http://www.w3.org/2000/svg">
<g clip-path="url(#clip0_37_2241)">
<path d="M13.4378 11.0491L12.0024 7.63414C11.9658 7.55186 11.9018 7.48785 11.8195 7.45584C11.7784 7.43757 11.7372 7.42841 11.6915 7.42841C11.6503 7.42841 11.6046 7.43757 11.5635 7.45584L8.68339 8.66732C8.59653 8.69933 8.53252 8.76788 8.50051 8.85017C8.46396 8.93245 8.46851 9.02389 8.50051 9.10618L9.936 12.5212C9.97258 12.6035 10.0366 12.6675 10.1189 12.704C10.2012 12.736 10.2926 12.736 10.3749 12.6995L13.2596 11.488C13.3418 11.456 13.4058 11.392 13.4378 11.3051C13.4744 11.2228 13.4698 11.1314 13.4378 11.0491ZM13.4378 11.0491L12.0024 7.63414C11.9658 7.55186 11.9018 7.48785 11.8195 7.45584C11.7784 7.43757 11.7372 7.42841 11.6915 7.42841C11.6503 7.42841 11.6046 7.43757 11.5635 7.45584L8.68339 8.66732C8.59653 8.69933 8.53252 8.76788 8.50051 8.85017C8.46396 8.93245 8.46851 9.02389 8.50051 9.10618L9.936 12.5212C9.97258 12.6035 10.0366 12.6675 10.1189 12.704C10.2012 12.736 10.2926 12.736 10.3749 12.6995L13.2596 11.488C13.3418 11.456 13.4058 11.392 13.4378 11.3051C13.4744 11.2228 13.4698 11.1314 13.4378 11.0491ZM15.9111 11.4834L12.455 3.25455C12.2904 2.8614 11.9749 2.55053 11.5863 2.39051L8.10737 0.959603C7.50391 0.708171 6.81817 0.959603 6.52104 1.52193C6.87303 1.78709 7.17477 2.11165 7.41705 2.46825C7.49476 2.39051 7.5862 2.32653 7.69136 2.2808C8.14395 2.09338 8.66511 2.30365 8.85711 2.75626C9.04454 3.20885 8.83426 3.73001 8.38165 3.92201C8.28566 3.95859 8.18965 3.98145 8.09366 3.98602C8.1668 4.29689 8.20338 4.61688 8.20338 4.94605C8.20338 6.50495 7.36219 7.93586 6.03187 8.69475L8.51424 14.5921C8.75195 15.159 9.41026 15.4287 9.97716 15.191L15.3076 12.9509C15.8836 12.7086 16.1534 12.0503 15.9111 11.4834ZM13.863 11.4788C13.7807 11.6754 13.6299 11.8309 13.4333 11.9131L10.5532 13.12C10.4572 13.1658 10.352 13.1841 10.2469 13.1841C10.1463 13.1841 10.0411 13.1658 9.94516 13.1246C9.74858 13.0469 9.59771 12.8915 9.51543 12.6995L8.07994 9.28448C7.91079 8.88218 8.09822 8.41589 8.5051 8.24672L11.3852 7.03526C11.7875 6.86612 12.2538 7.05812 12.423 7.46042L13.8584 10.8708C13.9407 11.0674 13.9407 11.2823 13.863 11.4788ZM12.0024 7.63414C11.9658 7.55186 11.9018 7.48785 11.8195 7.45584C11.7784 7.43757 11.7372 7.42841 11.6915 7.42841C11.6503 7.42841 11.6046 7.43757 11.5635 7.45584L8.68339 8.66732C8.59653 8.69933 8.53252 8.76788 8.50051 8.85017C8.46396 8.93245 8.46851 9.02389 8.50051 9.10618L9.936 12.5212C9.97258 12.6035 10.0366 12.6675 10.1189 12.704C10.2012 12.736 10.2926 12.736 10.3749 12.6995L13.2596 11.488C13.3418 11.456 13.4058 11.392 13.4378 11.3051C13.4744 11.2228 13.4698 11.1314 13.4378 11.0491L12.0024 7.63414ZM13.4378 11.0491L12.0024 7.63414C11.9658 7.55186 11.9018 7.48785 11.8195 7.45584C11.7784 7.43757 11.7372 7.42841 11.6915 7.42841C11.6503 7.42841 11.6046 7.43757 11.5635 7.45584L8.68339 8.66732C8.59653 8.69933 8.53252 8.76788 8.50051 8.85017C8.46396 8.93245 8.46851 9.02389 8.50051 9.10618L9.936 12.5212C9.97258 12.6035 10.0366 12.6675 10.1189 12.704C10.2012 12.736 10.2926 12.736 10.3749 12.6995L13.2596 11.488C13.3418 11.456 13.4058 11.392 13.4378 11.3051C13.4744 11.2228 13.4698 11.1314 13.4378 11.0491ZM13.4378 11.0491L12.0024 7.63414C11.9658 7.55186 11.9018 7.48785 11.8195 7.45584C11.7784 7.43757 11.7372 7.42841 11.6915 7.42841C11.6503 7.42841 11.6046 7.43757 11.5635 7.45584L8.68339 8.66732C8.59653 8.69933 8.53252 8.76788 8.50051 8.85017C8.46396 8.93245 8.46851 9.02389 8.50051 9.10618L9.936 12.5212C9.97258 12.6035 10.0366 12.6675 10.1189 12.704C10.2012 12.736 10.2926 12.736 10.3749 12.6995L13.2596 11.488C13.3418 11.456 13.4058 11.392 13.4378 11.3051C13.4744 11.2228 13.4698 11.1314 13.4378 11.0491ZM4.84324 1.19733C4.79296 1.23391 4.74268 1.27049 4.69695 1.31162C4.26722 1.67735 4.02036 2.17566 4.03864 2.63282V2.64652C4.65582 2.73338 5.12213 3.28655 5.07182 3.93571C5.02612 4.51631 4.55523 4.9872 3.97466 5.03748C3.23406 5.09691 2.62146 4.48431 2.67631 3.74371C2.71747 3.22254 3.09234 2.79281 3.58606 2.67395C3.58148 2.66482 3.58148 2.65567 3.58148 2.64652C3.55863 2.09795 3.80551 1.5402 4.2581 1.09219C3.98378 1.06477 3.70492 1.06934 3.41691 1.10135C1.68886 1.29792 0.271655 2.6831 0.0384995 4.40202C-0.212933 6.21238 0.792822 7.81699 2.30602 8.48903V14.1532C2.30602 14.2675 2.34717 14.3818 2.42946 14.4687L3.38948 15.5247C3.65007 15.8081 4.09352 15.8081 4.35408 15.5247L5.35984 14.4275C5.41012 14.3681 5.44212 14.2904 5.44212 14.2127V13.6412C5.44212 13.5132 5.39184 13.3943 5.30498 13.3075L4.77011 12.7634L5.22727 12.2972C5.34613 12.1737 5.34613 11.9817 5.22727 11.8583L4.77011 11.3965L5.22727 10.9303C5.34613 10.8114 5.34613 10.6148 5.22727 10.496L4.77011 10.0296L5.30498 9.48105C5.39184 9.39418 5.44212 9.27532 5.44212 9.1519V8.48902C6.7999 7.88557 7.74622 6.52782 7.74622 4.94604C7.74622 3.14484 6.51188 1.62706 4.84324 1.19733ZM4.57354 3.58827C4.61009 3.68428 4.62382 3.78942 4.61466 3.89916C4.61009 3.97229 4.59181 4.04088 4.56438 4.10486C4.16666 3.91744 3.86037 3.61115 3.70035 3.22712C3.68665 3.19512 3.67292 3.15856 3.66379 3.12656C3.61806 2.98026 3.59063 2.83397 3.58606 2.67395C3.65007 2.65567 3.71407 2.64652 3.77808 2.64197C3.86494 2.63282 3.95178 2.6374 4.03864 2.64652C4.04321 2.79281 4.07064 2.92541 4.1255 3.04882C4.13923 3.0854 4.1575 3.12198 4.17581 3.15856C4.26722 3.32771 4.40439 3.47398 4.57354 3.58827ZM7.22048 0.452163C6.99647 0.507021 6.78617 0.603033 6.60332 0.744751C6.22387 0.685318 5.79872 0.731023 5.39184 0.895621C5.37814 0.895621 5.35984 0.904746 5.34614 0.909321C5.16784 0.987058 4.99869 1.08304 4.84324 1.19733C4.65124 1.14705 4.45467 1.11047 4.2581 1.09219C4.3038 1.04646 4.34953 1.00076 4.39981 0.959601C4.50952 0.868191 4.62839 0.781331 4.75638 0.703593C4.88897 0.621308 5.02612 0.548176 5.16784 0.488741C5.86727 0.196156 6.62617 0.191578 7.22048 0.452163ZM8.13937 2.6831C8.06621 2.86598 7.96565 3.04427 7.83763 3.20885C7.78735 3.09456 7.73249 2.98027 7.67306 2.8751C7.71879 2.80197 7.78277 2.73796 7.86509 2.70141C7.91994 2.67853 7.9748 2.6694 8.03423 2.6694C8.07078 2.6694 8.10279 2.67395 8.13937 2.6831Z" fill="#7590A6"/>
</g>
<defs>
<clipPath id="clip0_37_2241">
<rect width="16" height="16" fill="white"/>
</clipPath>
</defs>
</svg>
