<svg width="16" height="16" viewBox="0 0 16 16" fill="none" xmlns="http://www.w3.org/2000/svg">
<g clip-path="url(#clip0_37_2701)">
<path d="M2.27243 1.44C2.26612 1.45625 2.2611 1.47296 2.25743 1.49C2.11743 2.16333 1.98285 2.83333 1.85368 3.5L0.77993 1.625C0.768959 1.606 0.763184 1.58444 0.763184 1.5625C0.763184 1.54056 0.768959 1.519 0.77993 1.5C0.790943 1.48093 0.806801 1.4651 0.825899 1.45412C0.844996 1.44315 0.866654 1.43741 0.88868 1.4375L2.27243 1.44Z" fill="#7590A6"/>
<path d="M14.9811 6.26C14.7194 5.33884 14.2521 4.48903 13.6145 3.77454C12.9768 3.06004 12.1855 2.49947 11.2999 2.135C10.9889 2.01157 10.6714 1.90558 10.3486 1.8175C11.0299 5.14625 11.6961 8.66875 11.6961 12C11.6961 12.435 11.6849 12.865 11.6624 13.285C12.6596 13.0545 13.5326 12.4552 14.1061 11.6075C14.6462 10.84 15.0054 9.96023 15.157 9.03411C15.3085 8.10799 15.2484 7.15958 14.9811 6.26ZM12.7899 10.6825C12.6355 10.9057 12.4498 11.1057 12.2386 11.2763C12.3149 8.66375 11.5849 5.02625 11.3786 4.05875C11.8386 4.29875 12.9136 5.02125 13.4349 6.71375C13.5691 7.14604 13.6374 7.5961 13.6374 8.04875C13.6354 8.9934 13.3391 9.91396 12.7899 10.6825Z" fill="#7590A6"/>
<path d="M10.6876 15.2075V15.6712C10.6876 15.7584 10.6529 15.842 10.5913 15.9037C10.5296 15.9654 10.446 16 10.3588 16H2.13756C2.09445 16 2.05176 15.9915 2.01194 15.9749C1.97213 15.9584 1.93597 15.9342 1.90554 15.9036C1.87511 15.8731 1.85102 15.8368 1.83463 15.797C1.81825 15.7571 1.8099 15.7144 1.81006 15.6712V15.2075H10.6876Z" fill="#7590A6"/>
<path d="M8.98376 1.19125H3.32251C3.97626 0.44875 5.02501 0 6.15251 0C7.28001 0 8.32876 0.44875 8.98376 1.19125Z" fill="#7590A6"/>
<path d="M6.26886 7.8075C6.06099 7.8075 5.86164 7.89007 5.71466 8.03705C5.56768 8.18403 5.48511 8.38338 5.48511 8.59125V12.3412C5.48511 12.5491 5.56768 12.7485 5.71466 12.8954C5.86164 13.0424 6.06099 13.125 6.26886 13.125C6.47672 13.125 6.67607 13.0424 6.82305 12.8954C6.97003 12.7485 7.05261 12.5491 7.05261 12.3412V8.59125C7.05261 8.38338 6.97003 8.18403 6.82305 8.03705C6.67607 7.89007 6.47672 7.8075 6.26886 7.8075Z" fill="#7590A6"/>
<path d="M10.1039 1.87501C10.0783 1.75292 10.0116 1.64332 9.9149 1.56458C9.81818 1.48583 9.69733 1.44273 9.5726 1.44251H2.6251C2.59603 1.44186 2.56765 1.45137 2.54484 1.46939C2.52202 1.48741 2.5062 1.51283 2.5001 1.54126C1.5376 6.22001 0.775103 10.42 1.22135 14.4425C1.2374 14.5848 1.30552 14.7161 1.4126 14.8112C1.51968 14.9063 1.65815 14.9584 1.80135 14.9575H10.7364C10.8797 14.9584 11.0183 14.9064 11.1256 14.8113C11.2329 14.7163 11.3013 14.5849 11.3176 14.4425C11.404 13.6325 11.4457 12.8183 11.4426 12.0038C11.4464 8.75001 10.8164 5.34501 10.1039 1.87501ZM3.9176 4.81876C3.89432 4.79533 3.88125 4.76365 3.88125 4.73063C3.88125 4.69761 3.89432 4.66593 3.9176 4.64251C4.51075 4.05048 5.31456 3.71797 6.1526 3.71797C6.99065 3.71797 7.79446 4.05048 8.3876 4.64251C8.41088 4.66593 8.42395 4.69761 8.42395 4.73063C8.42395 4.76365 8.41088 4.79533 8.3876 4.81876C8.37598 4.83047 8.36216 4.83977 8.34693 4.84612C8.33169 4.85246 8.31535 4.85573 8.29885 4.85573C8.28235 4.85573 8.26601 4.85246 8.25078 4.84612C8.23555 4.83977 8.22172 4.83047 8.2101 4.81876C7.66406 4.27375 6.92409 3.96765 6.1526 3.96765C5.38111 3.96765 4.64114 4.27375 4.0951 4.81876C4.08348 4.83047 4.06966 4.83977 4.05443 4.84612C4.03919 4.85246 4.02285 4.85573 4.00635 4.85573C3.98985 4.85573 3.97351 4.85246 3.95828 4.84612C3.94305 4.83977 3.92922 4.83047 3.9176 4.81876ZM7.3026 12.335C7.3026 12.6092 7.19369 12.8721 6.99983 13.066C6.80596 13.2598 6.54302 13.3688 6.26885 13.3688C5.99469 13.3688 5.73175 13.2598 5.53788 13.066C5.34402 12.8721 5.2351 12.6092 5.2351 12.335V8.59126C5.2351 8.31709 5.34402 8.05415 5.53788 7.86028C5.73175 7.66642 5.99469 7.55751 6.26885 7.55751C6.54302 7.55751 6.80596 7.66642 6.99983 7.86028C7.19369 8.05415 7.3026 8.31709 7.3026 8.59126V12.335ZM5.42135 6.14501C5.61557 5.95158 5.8785 5.84298 6.1526 5.84298C6.42671 5.84298 6.68964 5.95158 6.88385 6.14501C6.89557 6.15663 6.90487 6.17045 6.91121 6.18568C6.91756 6.20092 6.92083 6.21725 6.92083 6.23376C6.92083 6.25026 6.91756 6.26659 6.91121 6.28183C6.90487 6.29706 6.89557 6.31088 6.88385 6.32251C6.87217 6.33409 6.85832 6.34326 6.84309 6.34948C6.82786 6.3557 6.81155 6.35885 6.7951 6.35876C6.76231 6.35862 6.73089 6.3456 6.7076 6.32251C6.56039 6.17534 6.36076 6.09266 6.1526 6.09266C5.94445 6.09266 5.74481 6.17534 5.5976 6.32251C5.57418 6.34579 5.5425 6.35885 5.50948 6.35885C5.47646 6.35885 5.44477 6.34579 5.42135 6.32251C5.40964 6.31088 5.40034 6.29706 5.39399 6.28183C5.38765 6.26659 5.38438 6.25026 5.38438 6.23376C5.38438 6.21725 5.38765 6.20092 5.39399 6.18568C5.40034 6.17045 5.40964 6.15663 5.42135 6.14501ZM7.63385 5.57001C7.61043 5.59329 7.57875 5.60635 7.54573 5.60635C7.51271 5.60635 7.48102 5.59329 7.4576 5.57001C7.11108 5.22468 6.64181 5.03078 6.1526 5.03078C5.66339 5.03078 5.19413 5.22468 4.8476 5.57001C4.82369 5.59048 4.79293 5.60118 4.76147 5.59997C4.73001 5.59875 4.70017 5.58571 4.67791 5.56345C4.65565 5.54119 4.6426 5.51135 4.64139 5.47989C4.64017 5.44843 4.65087 5.41767 4.67135 5.39376C5.06439 5.00126 5.59714 4.7808 6.1526 4.7808C6.70806 4.7808 7.24081 5.00126 7.63385 5.39376C7.65714 5.41718 7.6702 5.44886 7.6702 5.48188C7.6702 5.5149 7.65714 5.54659 7.63385 5.57001ZM8.50885 12.695H8.13385C8.1007 12.695 8.06891 12.6818 8.04546 12.6584C8.02202 12.635 8.00885 12.6032 8.00885 12.57C8.00885 12.5369 8.02202 12.5051 8.04546 12.4816C8.06891 12.4582 8.1007 12.445 8.13385 12.445H8.50885C8.54201 12.445 8.5738 12.4582 8.59724 12.4816C8.62068 12.5051 8.63385 12.5369 8.63385 12.57C8.63385 12.6032 8.62068 12.635 8.59724 12.6584C8.5738 12.6818 8.54201 12.695 8.50885 12.695ZM8.50885 11.64H8.13385C8.1007 11.64 8.06891 11.6268 8.04546 11.6034C8.02202 11.58 8.00885 11.5482 8.00885 11.515C8.00885 11.4819 8.02202 11.4501 8.04546 11.4266C8.06891 11.4032 8.1007 11.39 8.13385 11.39H8.50885C8.54201 11.39 8.5738 11.4032 8.59724 11.4266C8.62068 11.4501 8.63385 11.4819 8.63385 11.515C8.63385 11.5482 8.62068 11.58 8.59724 11.6034C8.5738 11.6268 8.54201 11.64 8.50885 11.64ZM8.50885 10.585H8.13385C8.1007 10.585 8.06891 10.5718 8.04546 10.5484C8.02202 10.525 8.00885 10.4932 8.00885 10.46C8.00885 10.4269 8.02202 10.3951 8.04546 10.3716C8.06891 10.3482 8.1007 10.335 8.13385 10.335H8.50885C8.54201 10.335 8.5738 10.3482 8.59724 10.3716C8.62068 10.3951 8.63385 10.4269 8.63385 10.46C8.63385 10.4932 8.62068 10.525 8.59724 10.5484C8.5738 10.5718 8.54201 10.585 8.50885 10.585ZM8.50885 9.52876H8.13385C8.1007 9.52876 8.06891 9.51559 8.04546 9.49214C8.02202 9.4687 8.00885 9.43691 8.00885 9.40376C8.00885 9.3706 8.02202 9.33881 8.04546 9.31537C8.06891 9.29192 8.1007 9.27876 8.13385 9.27876H8.50885C8.54201 9.27876 8.5738 9.29192 8.59724 9.31537C8.62068 9.33881 8.63385 9.3706 8.63385 9.40376C8.63385 9.43691 8.62068 9.4687 8.59724 9.49214C8.5738 9.51559 8.54201 9.52876 8.50885 9.52876ZM8.50885 8.47376H8.13385C8.1007 8.47376 8.06891 8.46059 8.04546 8.43714C8.02202 8.4137 8.00885 8.38191 8.00885 8.34876C8.00885 8.3156 8.02202 8.28381 8.04546 8.26037C8.06891 8.23692 8.1007 8.22376 8.13385 8.22376H8.50885C8.54201 8.22376 8.5738 8.23692 8.59724 8.26037C8.62068 8.28381 8.63385 8.3156 8.63385 8.34876C8.63385 8.38191 8.62068 8.4137 8.59724 8.43714C8.5738 8.46059 8.54201 8.47376 8.50885 8.47376Z" fill="#7590A6"/>
</g>
<defs>
<clipPath id="clip0_37_2701">
<rect width="16" height="16" fill="white"/>
</clipPath>
</defs>
</svg>
