<svg width="16" height="16" viewBox="0 0 16 16" fill="none" xmlns="http://www.w3.org/2000/svg">
<g clip-path="url(#clip0_37_2403)">
<path d="M9.44791 8.83891V11.3931C9.44791 11.4636 9.50503 11.5207 9.57553 11.5207H12.9333V13.8119H11.9848C11.7156 13.2947 11.1749 12.9405 10.5527 12.9405C9.93041 12.9405 9.38969 13.2947 9.12047 13.8119H8.17203V8.83891H9.44791ZM9.70316 8.83891V11.2655H12.8392L11.4297 8.83891H9.70316ZM16 2.65212C16 3.91816 13.9352 7.3435 13.4351 8.15444C12.9351 7.3435 10.8703 3.91816 10.8703 2.65212C10.8703 1.23784 12.0209 0.0872803 13.4351 0.0872803C14.8494 0.087249 16 1.23784 16 2.65212ZM14.6399 2.65212C14.6399 1.98787 14.0995 1.44747 13.4351 1.44747C12.7709 1.44747 12.2305 1.98787 12.2305 2.65212C12.2305 3.31637 12.7709 3.85675 13.4351 3.85675C14.0995 3.85675 14.6399 3.31637 14.6399 2.65212ZM1.17234 13.8119C1.44153 13.2947 1.98228 12.9405 2.60459 12.9405C3.22678 12.9405 3.7675 13.2947 4.03662 13.8119H7.91681V5.89519H5.14906V8.18362C5.14906 8.22937 5.12456 8.27162 5.08481 8.29437C5.06519 8.30562 5.04328 8.31125 5.02144 8.31125C4.99909 8.31125 4.97678 8.30537 4.95684 8.29369L3.95853 7.70778L2.96022 8.29369C2.92078 8.31684 2.87194 8.31712 2.83222 8.29437C2.7925 8.27162 2.768 8.22937 2.768 8.18362V5.89519H0V13.8119H1.17234ZM3.89391 7.44972C3.93378 7.42631 3.98319 7.42631 4.02309 7.44972L4.89378 7.96072V5.89516H3.02322V7.96072L3.89391 7.44972ZM0.990687 14.5542C0.990687 14.3845 1.01719 14.2209 1.066 14.0671H0V15.0414H1.06603C1.01722 14.8876 0.990687 14.724 0.990687 14.5542ZM9.01416 15.0414C8.96537 14.8876 8.93888 14.724 8.93888 14.5542C8.93888 14.3845 8.96541 14.2209 9.01416 14.0671H4.14294C4.19172 14.2209 4.21822 14.3845 4.21822 14.5542C4.21822 14.724 4.19169 14.8876 4.14294 15.0414H9.01416ZM12.9333 15.0414V14.0671H12.0911C12.1399 14.2209 12.1664 14.3845 12.1664 14.5542C12.1664 14.724 12.1399 14.8876 12.0911 15.0414H12.9333ZM11.9112 14.5542C11.9112 13.8052 11.3018 13.1957 10.5527 13.1957C9.80353 13.1957 9.19409 13.8052 9.19409 14.5542C9.19409 15.3033 9.80353 15.9127 10.5527 15.9127C11.3018 15.9127 11.9112 15.3033 11.9112 14.5542ZM3.96297 14.5542C3.96297 13.8052 3.35359 13.1957 2.60456 13.1957C1.85541 13.1957 1.24591 13.8052 1.24591 14.5542C1.24591 15.3033 1.85541 15.9127 2.60456 15.9127C3.35359 15.9127 3.96297 15.3033 3.96297 14.5542Z" fill="#7590A6"/>
</g>
<defs>
<clipPath id="clip0_37_2403">
<rect width="16" height="16" fill="white"/>
</clipPath>
</defs>
</svg>
