<svg width="16" height="16" viewBox="0 0 16 16" fill="none" xmlns="http://www.w3.org/2000/svg">
<g clip-path="url(#clip0_37_2697)">
<path d="M13.3334 5.33334H11.3334V13.3333C11.333 13.7926 11.2368 14.2467 11.0508 14.6667H13.3334C13.8639 14.6667 14.3726 14.456 14.7477 14.0809C15.1227 13.7058 15.3334 13.1971 15.3334 12.6667V7.33334C15.3334 6.80291 15.1227 6.2942 14.7477 5.91913C14.3726 5.54406 13.8639 5.33334 13.3334 5.33334Z" fill="#7590A6"/>
<path d="M8.00008 0.666672H2.66675C2.13632 0.666672 1.62761 0.877385 1.25253 1.25246C0.877462 1.62753 0.666748 2.13624 0.666748 2.66667V13.3333C0.666748 13.8638 0.877462 14.3725 1.25253 14.7476C1.62761 15.1226 2.13632 15.3333 2.66675 15.3333H8.00008C8.53051 15.3333 9.03922 15.1226 9.4143 14.7476C9.78937 14.3725 10.0001 13.8638 10.0001 13.3333V2.66667C10.0001 2.13624 9.78937 1.62753 9.4143 1.25246C9.03922 0.877385 8.53051 0.666672 8.00008 0.666672ZM6.00008 13.3333H4.66675C4.48994 13.3333 4.32037 13.2631 4.19534 13.1381C4.07032 13.0131 4.00008 12.8435 4.00008 12.6667C4.00008 12.4899 4.07032 12.3203 4.19534 12.1953C4.32037 12.0702 4.48994 12 4.66675 12H6.00008C6.17689 12 6.34646 12.0702 6.47149 12.1953C6.59651 12.3203 6.66675 12.4899 6.66675 12.6667C6.66675 12.8435 6.59651 13.0131 6.47149 13.1381C6.34646 13.2631 6.17689 13.3333 6.00008 13.3333Z" fill="#7590A6"/>
</g>
<defs>
<clipPath id="clip0_37_2697">
<rect width="16" height="16" fill="white"/>
</clipPath>
</defs>
</svg>
