<svg width="16" height="16" viewBox="0 0 16 16" fill="none" xmlns="http://www.w3.org/2000/svg">
<g clip-path="url(#clip0_22_461)">
<path d="M0.570001 5.43237C0.807688 5.51175 1.22638 5.68847 1.62509 6.08719C2.02381 6.48591 2.20053 6.90456 2.27991 7.14228C2.33706 7.31591 2.50331 7.46384 2.72509 7.46394C2.94688 7.46384 3.11313 7.31591 3.17028 7.14228C3.24966 6.90459 3.42638 6.48591 3.82509 6.08719C4.22381 5.68847 4.64253 5.51175 4.88019 5.43237C5.05381 5.37522 5.20175 5.20897 5.20184 4.98719C5.20175 4.76541 5.05381 4.59916 4.88019 4.542C4.6425 4.46262 4.22381 4.28591 3.82509 3.88719C3.42638 3.48847 3.24966 3.06981 3.17028 2.83209C3.11313 2.65847 2.94688 2.51053 2.72509 2.51044C2.50331 2.51053 2.33706 2.65847 2.27991 2.83209C2.20053 3.06978 2.02381 3.48847 1.62509 3.88719C1.22638 4.28591 0.807657 4.46262 0.570001 4.542C0.396376 4.59916 0.248438 4.76541 0.248344 4.98719C0.248438 5.20897 0.396376 5.37519 0.570001 5.43237Z" fill="#7590A6"/>
<path d="M7.78497 4.9875C7.78497 5.24638 7.99485 5.45625 8.25372 5.45625H8.78916V5.99166C8.78916 6.25053 8.99904 6.46041 9.25791 6.46041C9.51679 6.46041 9.72666 6.25053 9.72666 5.99166V5.45625H10.2621C10.5209 5.45625 10.7308 5.24638 10.7308 4.9875C10.7308 4.72863 10.5209 4.51875 10.2621 4.51875H9.72666V3.98335C9.72666 3.72447 9.51679 3.5146 9.25791 3.5146C8.99904 3.5146 8.78916 3.72447 8.78916 3.98335V4.51875H8.25372C7.99485 4.51875 7.78497 4.72863 7.78497 4.9875Z" fill="#7590A6"/>
<path d="M5.74332 1.94166H6.27872V2.47706C6.27872 2.73594 6.4886 2.94581 6.74747 2.94581C7.00635 2.94581 7.21622 2.73594 7.21622 2.47706V1.94166H7.75166C8.01054 1.94166 8.22041 1.73178 8.22041 1.47291C8.22041 1.21403 8.01054 1.00416 7.75166 1.00416H7.21622V0.46875C7.21622 0.209875 7.00635 0 6.74747 0C6.4886 0 6.27872 0.209875 6.27872 0.46875V1.00416H5.74332C5.48444 1.00416 5.27457 1.21403 5.27457 1.47291C5.27457 1.73178 5.48444 1.94166 5.74332 1.94166Z" fill="#7590A6"/>
<path d="M8.10741 14.1326C8.12406 14.1305 8.59819 14.0685 9.04228 13.7692C9.05913 13.7578 9.07491 13.7457 9.09122 13.734L9.94344 9.47291H10.2621C10.5209 9.47291 10.7308 9.26303 10.7308 9.00416C10.7308 8.74528 10.5209 8.53541 10.2621 8.53541H1.22456C0.965689 8.53541 0.755814 8.74528 0.755814 9.00416C0.755814 9.26303 0.965689 9.47291 1.22456 9.47291H1.54322L2.38478 13.6808C2.43334 13.6502 2.47906 13.6138 2.52097 13.5719L5.41191 10.681C5.59494 10.498 5.89175 10.498 6.07481 10.681C6.25788 10.8641 6.25788 11.1609 6.07481 11.3439L3.18388 14.2349C3.035 14.3838 2.82531 14.5299 2.57394 14.6266L2.77325 15.6232C2.81706 15.8423 3.00944 16 3.23288 16H6.9275C6.88328 15.8745 6.85619 15.7408 6.84922 15.6013C6.81191 14.8542 7.36413 14.2103 8.10741 14.1326Z" fill="#7590A6"/>
<path d="M1.67206 13.7408C1.37997 13.6198 1.19122 13.3373 1.19122 13.0208C1.19122 12.9263 1.2089 12.8347 1.24237 12.7493L1.00681 11.5715L0.745997 11.8323C0.428529 12.1498 0.253685 12.5718 0.253685 13.0212C0.253685 13.7179 0.669623 14.3403 1.31328 14.6069C1.78128 14.8008 2.21912 14.7631 2.57387 14.6266L2.38472 13.6808C2.174 13.8138 1.90947 13.8391 1.67206 13.7408Z" fill="#7590A6"/>
<path d="M13.7433 8.63441V0.46875C13.7433 0.209875 13.5335 0 13.2746 0C13.0157 0 12.8058 0.209875 12.8058 0.46875V8.63441C12.9591 8.61325 13.1156 8.60209 13.2746 8.60209C13.4336 8.60209 13.59 8.61325 13.7433 8.63441Z" fill="#7590A6"/>
<path d="M13.2746 9.5396C11.9087 9.5396 10.7975 10.6508 10.7975 12.0167C10.7975 14.7755 8.273 15.0578 8.2071 15.0648C7.95854 15.0897 7.7731 15.3051 7.78557 15.5546C7.79804 15.8041 8.00391 16 8.25372 16H11.7683C15.2983 16 15.7517 13.3426 15.7517 12.0167C15.7517 10.6508 14.6405 9.5396 13.2746 9.5396Z" fill="#7590A6"/>
</g>
<defs>
<clipPath id="clip0_22_461">
<rect width="16" height="16" fill="white"/>
</clipPath>
</defs>
</svg>
