<svg width="16" height="16" viewBox="0 0 16 16" fill="none" xmlns="http://www.w3.org/2000/svg">
<g clip-path="url(#clip0_22_480)">
<path d="M2 11.3333V4C1.58601 4.31049 1.25 4.7131 1.01857 5.17595C0.787148 5.63881 0.666664 6.14918 0.666664 6.66667V12C0.666664 12.4377 0.752883 12.8712 0.920399 13.2756C1.08791 13.68 1.33345 14.0475 1.64297 14.357C2.2681 14.9821 3.11594 15.3333 4 15.3333H9.33333C9.85081 15.3333 10.3612 15.2128 10.824 14.9814C11.2869 14.75 11.6895 14.414 12 14H4.66666C3.95942 14 3.28114 13.719 2.78105 13.219C2.28095 12.7189 2 12.0406 2 11.3333Z" fill="#7590A6"/>
<path d="M12 0.666666H6.66666C5.78261 0.666666 4.93476 1.01786 4.30964 1.64298C3.68452 2.2681 3.33333 3.11594 3.33333 4V9.33333C3.33333 10.2174 3.68452 11.0652 4.30964 11.6904C4.93476 12.3155 5.78261 12.6667 6.66666 12.6667H12C12.4377 12.6667 12.8712 12.5804 13.2756 12.4129C13.68 12.2454 14.0475 11.9999 14.357 11.6904C14.6665 11.3808 14.9121 11.0134 15.0796 10.6089C15.2471 10.2045 15.3333 9.77107 15.3333 9.33333V4C15.3333 3.56226 15.2471 3.12881 15.0796 2.72439C14.9121 2.31997 14.6665 1.95251 14.357 1.64298C14.0475 1.33345 13.68 1.08792 13.2756 0.920401C12.8712 0.752885 12.4377 0.666666 12 0.666666ZM6.66666 4.66667H9.33333C9.51014 4.66667 9.67971 4.7369 9.80473 4.86193C9.92976 4.98695 10 5.15652 10 5.33333C10 5.51014 9.92976 5.67971 9.80473 5.80474C9.67971 5.92976 9.51014 6 9.33333 6H6.66666C6.48985 6 6.32028 5.92976 6.19526 5.80474C6.07023 5.67971 5.99999 5.51014 5.99999 5.33333C5.99999 5.15652 6.07023 4.98695 6.19526 4.86193C6.32028 4.7369 6.48985 4.66667 6.66666 4.66667ZM12 8.66667H6.66666C6.48985 8.66667 6.32028 8.59643 6.19526 8.4714C6.07023 8.34638 5.99999 8.17681 5.99999 8C5.99999 7.82319 6.07023 7.65362 6.19526 7.52859C6.32028 7.40357 6.48985 7.33333 6.66666 7.33333H12C12.1768 7.33333 12.3464 7.40357 12.4714 7.52859C12.5964 7.65362 12.6667 7.82319 12.6667 8C12.6667 8.17681 12.5964 8.34638 12.4714 8.4714C12.3464 8.59643 12.1768 8.66667 12 8.66667Z" fill="#7590A6"/>
</g>
<defs>
<clipPath id="clip0_22_480">
<rect width="16" height="16" fill="white"/>
</clipPath>
</defs>
</svg>
