<svg width="16" height="16" viewBox="0 0 16 16" fill="none" xmlns="http://www.w3.org/2000/svg">
<path d="M15.6801 5.792C15.6801 5.984 15.5201 6.112 15.3601 6.112H14.2721L14.0161 5.44H15.3601C15.5201 5.44 15.6801 5.6 15.6801 5.792Z" fill="#7590A6"/>
<path d="M1.98407 5.44L1.72807 6.112H0.640068C0.448068 6.112 0.320068 5.952 0.320068 5.792C0.320068 5.632 0.480068 5.472 0.640068 5.472H1.98407V5.44Z" fill="#7590A6"/>
<path d="M14.912 8C14.464 8.288 13.376 8.448 13.152 9.6L12.96 10.624C13.664 10.464 14.4 10.272 15.104 10.048L14.912 8ZM2.84802 9.6C2.62402 8.448 1.50402 8.256 1.08802 8L0.896019 10.048C1.60002 10.304 2.33602 10.496 3.07202 10.688L2.84802 9.6ZM3.29602 8.864C3.55202 9.376 3.52002 9.6 3.77602 10.816C6.49602 11.36 9.31202 11.328 12.224 10.752C12.48 9.568 12.448 9.344 12.704 8.864H3.29602ZM8.89602 1.056H7.07202C6.81602 1.056 6.59202 1.28 6.59202 1.536V2.016H9.34402V1.536C9.37602 1.28 9.18402 1.056 8.89602 1.056ZM12.576 3.616C12.352 3.04 11.84 2.688 11.232 2.688H4.76802C4.16002 2.688 3.64802 3.04 3.42402 3.616L2.36802 6.304H13.664L12.576 3.616ZM13.792 6.976H2.20802C1.85602 6.976 1.56802 7.136 1.34402 7.392C2.08002 7.776 2.36802 7.84 2.81602 8.224H13.216C13.632 7.84 13.952 7.776 14.688 7.392C14.464 7.136 14.144 6.976 13.792 6.976ZM2.17602 14.208C1.85602 14.208 1.53602 14.144 1.24802 13.984V14.848C1.24802 14.88 1.28002 14.912 1.31202 14.912H2.52802C2.56002 14.912 2.59202 14.88 2.59202 14.848V14.208H2.17602ZM13.824 14.208H13.376V14.848C13.376 14.88 13.408 14.912 13.44 14.912H14.656C14.688 14.912 14.72 14.88 14.72 14.848V13.984C14.464 14.144 14.144 14.208 13.824 14.208ZM15.136 10.688C12.64 11.456 10.176 11.872 7.77602 11.872C5.40802 11.872 3.07202 11.488 0.832019 10.72L0.704019 12C0.672019 12.416 0.800019 12.8 1.08802 13.12C1.37602 13.408 1.72802 13.568 2.14402 13.568H13.792C14.208 13.568 14.56 13.408 14.848 13.12C15.136 12.832 15.264 12.416 15.232 12L15.136 10.688ZM2.36802 12.64H1.85602C1.66402 12.64 1.53602 12.48 1.53602 12.32C1.53602 12.128 1.69602 12 1.85602 12H2.40002C2.59202 12 2.72002 12.16 2.72002 12.32C2.72002 12.48 2.56002 12.64 2.36802 12.64ZM14.144 12.64H13.6C13.408 12.64 13.28 12.48 13.28 12.32C13.28 12.128 13.44 12 13.6 12H14.144C14.336 12 14.464 12.16 14.464 12.32C14.496 12.48 14.336 12.64 14.144 12.64Z" fill="#7590A6"/>
</svg>
