<svg width="16" height="16" viewBox="0 0 16 16" fill="none" xmlns="http://www.w3.org/2000/svg">
<g clip-path="url(#clip0_37_2261)">
<path fill-rule="evenodd" clip-rule="evenodd" d="M8.00012 7.00219C8.96855 7.00219 9.85746 7.33088 10.4332 7.88116H6.1409C6.12877 7.88084 6.11749 7.88084 6.10687 7.88116H5.5669C6.14268 7.33088 7.03155 7.00219 8.00012 7.00219ZM14.5045 1.86831C10.4933 1.13128 9.28706 2.64963 9.3149 4.69606C9.30365 4.70869 9.29243 4.72134 9.28127 4.73403C8.80018 5.28203 8.43227 5.86694 8.15199 6.55366C8.19615 6.55256 8.2403 6.55203 8.2844 6.55203C8.42715 6.55203 8.57065 6.55772 8.71412 6.56919C8.95868 6.02022 9.2779 5.52875 9.67412 5.07778C10.0897 4.60441 10.5987 4.15903 11.2196 3.69362C10.8428 4.10644 10.5221 4.57025 10.2572 5.08512C12.9705 4.84 12.1443 3.20809 14.5045 1.86831ZM1.25412 0.202062C5.51893 -0.581563 6.81815 1.01928 6.80349 3.18869C6.88996 3.30375 6.97121 3.42225 7.04762 3.54456C7.55796 4.36169 7.8443 5.33638 8.0349 6.55775C7.86065 6.56575 7.6863 6.58219 7.51309 6.60712C7.33312 5.46778 7.06784 4.56406 6.60362 3.82078C6.16349 3.11644 5.5598 2.59406 4.84721 2.16991C5.31327 2.67953 5.68049 3.17412 5.94887 3.65372C2.86374 3.43937 3.82102 1.65925 1.25412 0.202062ZM14.415 12.6749C14.0916 12.9587 13.5904 13.0049 13.3987 12.8936C13.3501 12.8651 13.3327 12.8412 13.3514 12.7662C13.542 11.9992 13.5116 11.605 13.4821 11.224C13.4696 11.0632 13.4579 10.9116 13.4617 10.7277C13.4801 9.85259 13.3586 9.33044 13.0676 9.03547C12.7776 8.7415 12.3843 8.73297 12.004 8.72447C11.6983 8.71797 11.3822 8.71109 11.0672 8.57453C10.9577 8.52706 10.8698 8.46916 10.797 8.40497H15.8526C15.8006 9.99141 15.2757 11.46 14.415 12.6749ZM8.00005 16C10.2793 16 12.3347 15.0241 13.7712 13.4688C13.7363 13.4711 13.7015 13.4727 13.6672 13.4727C13.469 13.4727 13.2836 13.4324 13.1357 13.3463C12.8796 13.1977 12.7701 12.9335 12.8431 12.6398C13.0133 11.955 12.9873 11.6194 12.9599 11.2642C12.947 11.0982 12.9337 10.9264 12.9381 10.7169C12.9527 10.0238 12.8708 9.58191 12.6947 9.40316C12.5606 9.26728 12.3406 9.25581 11.9926 9.24828C11.6699 9.24141 11.2682 9.23263 10.859 9.05519C10.4797 8.89084 10.2687 8.63747 10.1312 8.405H7.89165C8.37809 8.61156 8.91662 8.89344 9.25849 9.23422C9.51877 9.49353 9.64027 9.76325 9.61959 10.036C9.54374 11.0354 9.06196 11.6041 8.63693 12.1053C8.27109 12.5371 7.95521 12.9096 7.88037 13.5146C7.74759 14.588 7.32562 15.2906 6.8053 15.3047C6.79971 15.3047 6.79402 15.305 6.78849 15.305C6.24743 15.305 5.84799 14.6028 5.60087 13.217C5.34902 11.8054 4.96637 11.5458 4.62877 11.317C4.1508 10.9925 3.83637 10.6786 3.82118 9.32131C3.81534 8.79625 3.65574 8.58637 3.47005 8.405H0.147461C0.28593 12.6166 3.75524 16 8.00005 16ZM6.14209 8.40497C6.45055 8.42366 8.28799 8.95791 8.92371 9.64144C9.04671 9.77369 9.10512 9.89319 9.09727 9.99631C9.03427 10.8265 8.64712 11.2832 8.2373 11.7668C7.85246 12.2208 7.45452 12.6903 7.36046 13.4504C7.2518 14.3291 6.93699 14.7772 6.7913 14.7812C6.79087 14.7812 6.79046 14.7812 6.79002 14.7812C6.69043 14.7812 6.35799 14.479 6.11643 13.125C5.82587 11.496 5.32512 11.1562 4.92277 10.8835C4.59499 10.6609 4.35812 10.5005 4.34493 9.31544C4.3403 8.90097 4.25146 8.61584 4.13309 8.405L6.14209 8.40497Z" fill="#7590A6"/>
</g>
<defs>
<clipPath id="clip0_37_2261">
<rect width="16" height="16" fill="white"/>
</clipPath>
</defs>
</svg>
