<svg width="16" height="16" viewBox="0 0 16 16" fill="none" xmlns="http://www.w3.org/2000/svg">
<path fill-rule="evenodd" clip-rule="evenodd" d="M6.8196 6.53553C6.88711 6.53553 6.95181 6.50859 6.99935 6.46061C7.04696 6.41255 7.07372 6.34759 7.07331 6.2799L7.06844 5.44537C5.95474 5.45028 4.84102 5.45534 3.72735 5.45885L3.73226 6.28304C3.73307 6.42281 3.84649 6.53554 3.98623 6.53554L6.8196 6.53553Z" fill="#7590A6"/>
<path fill-rule="evenodd" clip-rule="evenodd" d="M6.83469 16C6.97509 16 7.08866 15.8863 7.08866 15.7459V14.2602H3.71121V15.746C3.71121 15.8864 3.82482 16 3.96519 16L6.83469 16ZM7.08866 13.7522V8.84042C7.08866 8.69998 6.97509 8.58641 6.83469 8.58641H3.96519C3.82478 8.58641 3.71121 8.69998 3.71121 8.84042V13.7522H7.08866Z" fill="#7590A6"/>
<path fill-rule="evenodd" clip-rule="evenodd" d="M6.47685 8.07851L6.47452 6.28119C6.47434 6.14101 6.3607 6.02755 6.22055 6.02755L4.57479 6.02751C4.50739 6.02751 4.44273 6.05431 4.39508 6.10203C4.34739 6.14979 4.3207 6.21442 4.32078 6.28193L4.3231 8.07851L6.47685 8.07851Z" fill="#7590A6"/>
<path fill-rule="evenodd" clip-rule="evenodd" d="M1.11744 4.9554C3.96556 4.9554 6.81539 4.93651 9.66366 4.92706C9.88899 4.92628 10.0997 4.83744 10.2585 4.67759C10.4174 4.51769 10.5048 4.30646 10.5041 4.08102L10.4932 0.840393C10.4917 0.375738 10.1122 -0.00155169 9.64727 3.55071e-05L4.45244 0.0174199C4.39947 0.0176044 4.34794 0.0342876 4.30494 0.0652179L0.376655 2.89061C0.31007 2.93848 0.270724 3.01566 0.270982 3.09767L0.274415 4.11516C0.276002 4.57826 0.654293 4.9554 1.11744 4.9554Z" fill="#7590A6"/>
<path fill-rule="evenodd" clip-rule="evenodd" d="M14.1762 7.44428V4.2877L14.7899 3.2209C14.8183 3.17159 14.8293 3.11409 14.8212 3.0578L14.4336 0.390312C14.4155 0.265372 14.3085 0.172803 14.1822 0.172803L11.8563 0.172729C11.73 0.172729 11.6231 0.265262 11.6049 0.390238L11.2174 3.0577C11.2092 3.11406 11.2202 3.17153 11.2486 3.22088L11.8624 4.28771L11.8623 7.44429L14.1762 7.44428Z" fill="#7590A6"/>
<path fill-rule="evenodd" clip-rule="evenodd" d="M14.2472 15.8269C14.6581 15.8269 14.9923 15.4926 14.9923 15.0818V10.4413L11.0549 10.4415L11.0464 15.0817C11.0464 15.4925 11.3806 15.8269 11.7915 15.8269L14.2472 15.8269Z" fill="#7590A6"/>
<path fill-rule="evenodd" clip-rule="evenodd" d="M14.9839 9.93359C15.3948 9.93359 15.729 9.5993 15.729 9.18846V8.69719C15.729 8.28639 15.3947 7.95221 14.9839 7.95221H11.0549C10.6441 7.95221 10.3098 8.28635 10.3098 8.69719V9.18846C10.3098 9.59934 10.6441 9.93359 11.0549 9.93359H14.9839Z" fill="#7590A6"/>
</svg>
