<svg width="16" height="16" viewBox="0 0 16 16" fill="none" xmlns="http://www.w3.org/2000/svg">
<g clip-path="url(#clip0_37_2491)">
<path d="M15.8608 4.25789C15.7363 4.0984 15.5452 4.00519 15.3428 4.00519H2.83261L2.64665 1.93354C2.61626 1.59475 2.3323 1.33517 1.99217 1.33517H0.657101C0.294193 1.33517 0 1.62936 0 1.99227C0 2.35518 0.294193 2.64937 0.657101 2.64937H1.39143L2.11167 10.6735C2.11183 10.6829 2.11136 10.6922 2.11189 10.7017C2.11336 10.727 2.11665 10.7516 2.12084 10.7759L2.14719 11.0693C2.14769 11.0748 2.14825 11.0803 2.14891 11.0858C2.22876 11.7777 2.58231 12.3771 3.09357 12.7821C2.82866 13.1204 2.67015 13.5458 2.67015 14.0078C2.67015 15.1063 3.56383 16 4.66229 16C5.76077 16 6.65446 15.1063 6.65446 14.0078C6.65446 13.7698 6.61238 13.5416 6.53553 13.3298H10.1319C10.0551 13.5416 10.013 13.7698 10.013 14.0078C10.013 15.1063 10.9067 16 12.0052 16C13.1037 16 13.9973 15.1063 13.9973 14.0078C13.9973 12.9093 13.1037 12.0156 12.0052 12.0156H4.66673C4.16758 12.0156 3.73261 11.7145 3.54487 11.2757L14.0462 10.6586C14.3329 10.6417 14.5755 10.4406 14.6452 10.162L15.9803 4.82162C16.0294 4.62537 15.9853 4.41741 15.8608 4.25789Z" fill="#7590A6"/>
<path d="M9.61629 2.99356H8.08347C7.8966 2.99356 7.73817 2.85617 7.71177 2.67118L7.4574 0.890215C7.4427 0.787582 7.47117 0.683698 7.53594 0.602655L7.82069 0.246569C7.94554 0.0907425 8.13422 0 8.33385 0H9.24253C9.4262 0 9.58297 0.132672 9.61301 0.313844L9.98668 2.55637C10.0248 2.78523 9.84831 2.99356 9.61629 2.99356Z" fill="#7590A6"/>
<path d="M13.9975 1.99227V2.61808C13.9975 2.82544 13.8294 2.99357 13.622 2.99357H11.7101C11.5265 2.99357 11.3699 2.86083 11.3397 2.67975L11.1886 1.77227C11.1504 1.54353 11.3269 1.33514 11.559 1.33514H13.3404C13.7031 1.33517 13.9975 1.6293 13.9975 1.99227Z" fill="#7590A6"/>
<path d="M5.99746 2.99356H4.38061C4.17325 2.99356 4.00513 2.82544 4.00513 2.61808V2.32614C4.00513 2.09155 4.13045 1.86998 4.34432 1.75071C4.44495 1.69457 4.55981 1.66904 4.67506 1.66904H5.91541C6.10222 1.66904 6.26086 1.8064 6.28714 1.99133L6.36916 2.56495C6.40151 2.79115 6.226 2.99356 5.99746 2.99356Z" fill="#7590A6"/>
</g>
<defs>
<clipPath id="clip0_37_2491">
<rect width="16" height="16" fill="white"/>
</clipPath>
</defs>
</svg>
