<svg width="16" height="16" viewBox="0 0 16 16" fill="none" xmlns="http://www.w3.org/2000/svg">
<g clip-path="url(#clip0_37_3611)">
<path d="M8.90625 4.6875C9.38731 4.6875 9.86997 4.62738 10.3384 4.53072C10.4152 3.07641 10.7327 2.14897 11.0049 1.63303C10.652 1.56191 10.3285 1.48009 10.0309 1.39031L9.28803 3.61956L8.39812 3.32294L9.14341 1.08647C8.94212 1.00937 8.17997 0.702625 8.08569 0.664531L7.35259 2.86381L6.46269 2.56719L7.20391 0.343437C6.59341 0.145156 5.94497 0 5.15625 0H4.6875V1.40625C4.6875 1.53488 4.63991 1.65344 4.552 1.74088C4.46594 1.82741 4.34784 1.875 4.21875 1.875C3.39203 1.875 3.00294 1.68091 2.55341 1.45569C2.06725 1.21263 1.51703 0.9375 0.46875 0.9375H0V4.6875H8.90625Z" fill="#7590A6"/>
<path d="M11.2866 4.28291C12.3013 3.96347 13.3193 3.43916 14.3251 2.77566L13.7241 1.87501H13.4742C12.8881 1.87501 12.4841 1.84401 12.0088 1.79141C11.8708 1.97822 11.4169 2.70591 11.2866 4.28291Z" fill="#7590A6"/>
<path d="M8.90625 5.62501H0V7.50001H9.84375C12.0126 7.50001 14.1514 6.50564 16 5.28582L14.8453 3.55548C13.14 4.68007 10.9577 5.62501 8.90625 5.62501Z" fill="#7590A6"/>
<path d="M7.60193 11.8229L6.71202 12.1195L5.96896 9.89034C5.67137 9.98012 5.34799 10.0619 4.99512 10.133C5.26724 10.6489 5.58471 11.5761 5.66162 13.0302C6.13037 13.1272 6.61315 13.1875 7.09377 13.1875H16V9.4375H15.5313C14.483 9.4375 13.9328 9.71263 13.4466 9.95569C12.9971 10.1809 12.608 10.375 11.7813 10.375C11.6522 10.375 11.5341 10.3274 11.4481 10.2409C11.3601 10.1534 11.3126 10.0349 11.3126 9.90625V8.5H10.8438C10.0551 8.5 9.40665 8.64512 8.79618 8.84331L9.53737 11.0671L8.64746 11.3638L7.91446 9.16447C7.08762 9.49878 7.11771 9.48631 6.85646 9.58647L7.60193 11.8229Z" fill="#7590A6"/>
<path d="M1.84849 11.3913C1.86686 11.4036 3.0448 12.256 4.71349 12.7819C4.58383 11.2133 4.13389 10.486 3.99046 10.2915C3.51546 10.344 3.11177 10.375 2.52599 10.375H2.27605L1.67505 11.2756L1.84849 11.3913Z" fill="#7590A6"/>
<path d="M7.09375 14.125C5.04225 14.125 2.86013 13.1801 1.15466 12.0554L0 13.7858C1.84669 15.0044 3.98594 16 6.15625 16H16V14.125H7.09375Z" fill="#7590A6"/>
</g>
<defs>
<clipPath id="clip0_37_3611">
<rect width="16" height="16" fill="white"/>
</clipPath>
</defs>
</svg>
