<?xml version="1.0" encoding="UTF-8"?>
<svg id="Layer_1" xmlns="http://www.w3.org/2000/svg" xmlns:svgjs="http://svgjs.dev/svgjs" version="1.1" viewBox="0 0 16 16">
  <!-- Generator: Adobe Illustrator 29.1.0, SVG Export Plug-In . SVG Version: 2.1.0 Build 142)  -->
  <defs>
    <style>
      .st0 {
        fill: #7590a6;
      }
    </style>
  </defs>
  <path class="st0" d="M.8,9.5h4.3v-1.1H.8v1.1ZM4.6,8.8c.1-.1.3-.1.4,0,.1.1.1.3,0,.4,0,0-.1,0-.2,0,0,0,0,0-.1,0,0,0,0,0,0,0,0,0,0-.1,0-.2,0,0,0-.1,0-.2h0ZM3.6,8.8c.1-.1.3-.1.4,0,0,0,0,.1,0,.2,0,0,0,.1,0,.2,0,0,0,0,0,0,0,0,0,0-.1,0-.2,0-.3-.1-.3-.3,0,0,0-.1,0-.2h0ZM2.7,8.8c.1-.1.3-.1.4,0,0,0,0,.1,0,.2,0,0,0,0,0,.1,0,0,0,0,0,0,0,0,0,0,0,0-.1,0-.2,0-.3,0,0,0,0-.1,0-.2,0,0,0-.1,0-.2h0ZM1.8,8.8c0,0,.2-.1.3,0,.1,0,.2.2.2.4,0,0,0,0,0,0,0,0,0,0,0,0-.1.1-.3.1-.4,0,0,0,0,0,0,0,0,0,0,0,0,0,0-.1,0-.2,0-.3ZM.9,8.8c.1-.1.3-.1.4,0,.1.1.1.3,0,.4,0,0-.2.1-.3,0,0,0,0,0,0,0,0,0,0,0,0,0,0-.1,0-.2,0-.3Z" fill="#7590A6"/>
  <path class="st0" d="M.8,6.5h4.3v1.3H.8v-1.3Z" fill="#7590A6"/>
  <path class="st0" d="M8.5,2.7h-4.3v.5h1.4c.4,0,.6.3.6.6h0c0,.1,2.3.1,2.3.1v-1.3Z" fill="#7590A6"/>
  <path class="st0" d="M3,16h7.2c1.2,0,2.1-1,2.1-2.2,0-1.1-.9-2-2.1-2.1h-4.1c-.6,0-1.1-.5-1.1-1.1v-.5H.8v3.7c0,1.2,1,2.2,2.2,2.2Z" fill="#7590A6"/>
  <rect class="st0" x="3.7" y="0" width="5.5" height="2.1" rx="1.1" ry="1.1" fill="#7590A6"/>
  <path class="st0" d="M.2,3.9v2s0,0,0,0h5.3s0,0,0,0c0,0,0,0,0,0v-2s0,0,0,0H.3s0,0,0,0c0,0,0,0,0,0Z" fill="#7590A6"/>
  <path class="st0" d="M15.2,11.6c.8-.8.8-2.2,0-3-.4-.4-.9-.6-1.5-.6h-4c-.6,0-1.1-.5-1.1-1.1v-.5h-2.4c-.1.1-.3.2-.4.2v1.6h0v1.7h0v.8c0,.3.2.5.5.5h4.1c.8,0,1.6.4,2.1,1h1.3c.6,0,1.1-.2,1.5-.6h0Z" fill="#7590A6"/>
  <path class="st0" d="M6.4,5.5s0,0-.1,0c0,0,0,0,0,0v.3h2.3v-1.1h-2.3v.4c.1,0,.3,0,.4,0,0,0,0,.1,0,.2,0,0,0,.1,0,.2,0,0-.1,0-.2,0ZM7.9,5.1s0,0,0,0c.1-.1.3-.1.4,0,0,0,0,0,0,0,0,0,0,0,0,.1,0,0,0,.1,0,.2-.1.1-.3.1-.4,0,0,0,0,0,0,0,0,0,0-.1,0-.2,0,0,0,0,0-.1ZM7.1,5c.1-.1.3-.1.4,0,.1.1.1.3,0,.4,0,0-.1,0-.2,0,0,0,0,0-.1,0,0,0,0,0,0,0-.1-.1-.1-.3,0-.4Z" fill="#7590A6"/>
</svg>