<svg width="16" height="16" viewBox="0 0 16 16" fill="none" xmlns="http://www.w3.org/2000/svg">
<path d="M9.39513 8.46001C9.88666 8.46001 10.2851 8.06154 10.2851 7.57001C10.2851 7.07847 9.88666 6.68001 9.39513 6.68001C8.90359 6.68001 8.50513 7.07847 8.50513 7.57001C8.50513 8.06154 8.90359 8.46001 9.39513 8.46001Z" fill="#7590A6"/>
<path d="M15.3627 8.26251C15.2702 8.82251 15.1052 9.36751 14.8677 9.87251C13.6127 12.5425 9.41268 14.1625 5.91768 14.1625C5.09768 14.1625 4.31768 14.0725 3.62268 13.89C2.62768 13.625 1.85018 13.19 1.30518 12.61C2.32018 14.2625 4.75268 14.965 8.45018 14.6475C11.2202 14.41 13.1977 13.5125 14.3252 11.9825C15.2677 10.6975 15.4077 9.24001 15.3627 8.26251Z" fill="#7590A6"/>
<path d="M3.6876 13.6475C7.2626 14.5975 13.1376 12.96 14.6426 9.76501C15.4401 8.0675 15.3951 5.9225 14.5226 4.16751C13.7801 2.67251 12.5626 1.68001 11.0926 1.36751C8.3701 0.792505 6.3226 3.04251 5.6226 4.31251C4.6101 6.1475 3.4326 6.8 2.4851 7.32751C1.4826 7.8825 0.760098 8.28501 0.640098 9.78751C0.485098 11.7125 1.5676 13.085 3.6876 13.6475ZM1.7326 9.88C1.8351 8.5975 2.6176 8.22751 3.5226 7.80251C4.4001 7.39001 5.3926 6.92251 6.1626 5.52501C6.8451 4.29251 8.5676 2.32501 10.7151 2.78001C11.9501 3.04001 12.9401 3.8125 13.5101 4.955C14.1601 6.2675 14.1601 7.88251 13.5051 9.27251C12.4351 11.5475 8.6526 13.055 5.6976 13.055C5.0876 13.055 4.5126 12.99 4.0051 12.855C2.4201 12.435 1.6126 11.3775 1.7326 9.88Z" fill="#7590A6"/>
<path d="M4.06757 12.615C6.88758 13.365 12.0551 11.765 13.2776 9.16751C13.9001 7.84501 13.9026 6.31251 13.2851 5.06751C12.7526 3.99501 11.8201 3.27001 10.6626 3.02501C10.4651 2.98251 10.2726 2.96251 10.0826 2.96251C8.34757 2.96251 6.96508 4.58751 6.38258 5.64501C5.57258 7.11251 4.49507 7.62001 3.63007 8.02751C2.72508 8.45501 2.07257 8.76001 1.98007 9.90001C1.84257 11.6475 3.04007 12.34 4.06757 12.615ZM9.39508 6.43001C10.0226 6.43001 10.5351 6.94251 10.5351 7.57001C10.5351 8.20001 10.0226 8.71001 9.39508 8.71001C8.76508 8.71001 8.25507 8.20001 8.25507 7.57001C8.25507 6.94251 8.76508 6.43001 9.39508 6.43001Z" fill="#7590A6"/>
</svg>
