<?xml version="1.0" encoding="UTF-8"?>
<svg id="Layer_1" xmlns="http://www.w3.org/2000/svg" xmlns:svgjs="http://svgjs.dev/svgjs" version="1.1" viewBox="0 0 16 16">
  <!-- Generator: Adobe Illustrator 29.1.0, SVG Export Plug-In . SVG Version: 2.1.0 Build 142)  -->
  <defs>
    <style>
      .st0 {
        fill: #7590a6;
      }
    </style>
  </defs>
  <g>
    <path class="st0" d="M1.8,6.7l8.2,5.1c-1.2.5-2.4.4-2.4.4-2.2,0-2.8,2.4-3.8,3.7,0,.2-.3.2-.5,0l-2.4-1.5c-.2,0-.2-.3,0-.5.7-1.5,2.6-3.1,1.6-5.1-.4-.7-.6-1.5-.7-2.2Z" fill="#7590A6"/>
    <path class="st0" d="M13.7,7.6c-.5,1.7-1.5,3.1-3,3.8L1.8,5.9c0-1,.3-1.9.8-2.9C4.2.3,7.7-.9,10.8.8c2.5,1.4,3.6,4.1,2.9,6.8h0Z" fill="#7590A6"/>
  </g>
  <path class="st0" d="M14.8,14.9c-.6.9-1.8,1.2-2.8.6s-1.2-1.8-.6-2.8,1.8-1.2,2.7-.6c1,.6,1.3,1.9.7,2.8Z" fill="#7590A6"/>
</svg>